<?xml version="1.0" standalone="no"?>
<!DOCTYPE svg PUBLIC "-//W3C//DTD SVG 20010904//EN"
 "http://www.w3.org/TR/2001/REC-SVG-20010904/DTD/svg10.dtd">
<svg version="1.0" xmlns="http://www.w3.org/2000/svg"
 width="1349.000000pt" height="697.000000pt" viewBox="0 0 1349.000000 697.000000"
 preserveAspectRatio="xMidYMid meet">

<g transform="translate(0.000000,697.000000) scale(0.100000,-0.100000)"
fill="#000000" stroke="none">
<path d="M13212 6903 c-7 -44 -8 -72 -1 -84 9 -18 12 -18 48 7 36 23 42 24 82
14 41 -11 43 -11 66 19 17 22 33 31 54 31 27 0 29 2 29 40 l0 40 -134 0 -133
0 -11 -67z"/>
<path d="M13126 6755 c-3 -8 -12 -15 -21 -15 -11 0 -15 -11 -15 -45 0 -41 2
-45 25 -45 21 0 25 5 25 28 0 15 4 42 9 60 7 24 7 32 -4 32 -7 0 -15 -7 -19
-15z"/>
<path d="M13458 6763 c6 -2 18 -2 25 0 6 3 1 5 -13 5 -14 0 -19 -2 -12 -5z"/>
<path d="M13033 6708 l-21 -23 29 -23 29 -24 0 46 c0 52 -7 56 -37 24z"/>
<path d="M13240 6611 c-50 -5 -59 -8 -40 -13 46 -14 110 -10 110 7 0 8 -1 14
-2 13 -2 -1 -32 -4 -68 -7z"/>
<path d="M11021 6514 c0 -11 3 -14 6 -6 3 7 2 16 -1 19 -3 4 -6 -2 -5 -13z"/>
<path d="M13130 6455 c-7 -8 -19 -15 -26 -15 -11 0 -14 -21 -14 -95 l0 -94 29
5 c34 7 123 -20 142 -43 11 -12 10 -23 -3 -59 l-16 -44 42 -11 c49 -14 76 -42
76 -79 0 -39 17 -49 78 -43 l52 6 0 80 0 79 -56 -4 c-55 -5 -56 -4 -72 29 -15
32 -15 35 4 53 11 11 43 25 72 32 l52 13 0 47 c0 40 -3 47 -22 51 l-23 4 23 2
c19 1 22 7 22 41 0 27 -4 40 -14 40 -27 0 -93 -36 -130 -71 l-38 -36 -40 43
c-23 24 -48 44 -58 44 -9 0 -29 9 -43 20 -22 17 -26 18 -37 5z"/>
<path d="M13043 6411 c-31 -33 -38 -80 -24 -161 6 -38 11 -84 11 -103 0 -23 6
-37 16 -41 9 -4 19 -5 21 -3 2 2 2 78 1 168 l-3 164 -22 -24z"/>
<path d="M10673 6364 c-3 -8 1 -22 10 -31 14 -14 16 -13 26 6 7 12 9 26 6 31
-10 15 -35 12 -42 -6z"/>
<path d="M12917 6213 c-4 -3 0 -17 8 -29 9 -14 11 -25 5 -29 -6 -3 -10 -13
-10 -22 0 -14 3 -14 20 2 11 10 20 26 20 35 0 20 -33 53 -43 43z"/>
<path d="M538 6185 c-9 -21 -8 -28 7 -45 22 -25 31 -19 15 10 -9 16 -9 25 -1
33 14 14 14 27 1 27 -6 0 -16 -11 -22 -25z"/>
<path d="M12940 6054 c-19 -7 -57 -13 -83 -13 l-48 -1 7 -51 c7 -51 7 -51 -16
-39 -14 8 -47 10 -89 8 -44 -4 -78 0 -104 10 -35 13 -40 13 -55 -2 -15 -15
-15 -18 -2 -26 8 -5 36 -10 63 -10 43 0 47 -2 47 -25 0 -25 0 -25 97 -25 119
0 178 19 188 59 3 14 18 38 32 52 15 17 23 36 21 50 -4 28 -13 30 -58 13z"/>
<path d="M13124 6045 c-3 -13 -12 -29 -20 -36 -10 -8 -14 -33 -14 -80 l0 -69
-59 0 c-62 0 -70 -8 -71 -62 0 -24 26 -23 33 2 5 20 47 36 72 26 8 -3 15 -17
15 -31 0 -43 17 -65 51 -65 21 0 40 -10 61 -30 34 -34 45 -36 94 -15 l36 15
-31 29 c-24 22 -31 38 -31 65 0 32 4 38 38 54 34 16 37 20 37 61 l0 44 -64 18
c-65 18 -106 47 -117 81 -8 25 -22 22 -30 -7z m118 -171 c17 -11 -14 -24 -57
-24 -22 0 -47 5 -55 10 -13 9 -13 11 0 20 15 11 92 6 112 -6z"/>
<path d="M13047 5973 c-13 -3 -57 -72 -57 -90 0 -2 18 -3 40 -3 l40 0 0 50 c0
28 -1 49 -2 49 -2 -1 -11 -3 -21 -6z"/>
<path d="M12715 5839 c22 -10 45 -19 51 -19 6 0 19 -9 29 -20 25 -27 44 -25
55 6 20 52 17 54 -82 53 l-93 -1 40 -19z"/>
<path d="M11083 5799 c-20 -7 -21 -11 -11 -41 25 -77 28 -81 43 -68 11 9 13
24 9 54 -9 57 -15 65 -41 55z"/>
<path d="M11416 5795 c-3 -9 0 -15 9 -15 16 0 20 16 6 24 -5 3 -11 -1 -15 -9z"/>
<path d="M11905 5791 c-3 -5 -1 -12 5 -16 5 -3 10 1 10 9 0 18 -6 21 -15 7z"/>
<path d="M13437 5794 c-11 -12 3 -24 29 -24 15 0 24 6 24 15 0 15 -40 21 -53
9z"/>
<path d="M12875 5729 c-10 -31 16 -48 45 -29 12 7 12 13 4 27 -16 26 -41 28
-49 2z"/>
<path d="M13056 5711 c-4 -7 -5 -15 -2 -18 9 -9 19 4 14 18 -4 11 -6 11 -12 0z"/>
<path d="M12648 5566 c-3 -14 -1 -31 3 -38 6 -8 9 1 9 25 0 42 -6 48 -12 13z"/>
<path d="M11990 5550 c0 -5 9 -10 21 -10 11 0 17 5 14 10 -3 6 -13 10 -21 10
-8 0 -14 -4 -14 -10z"/>
<path d="M12236 5551 c-4 -6 -3 -18 2 -27 8 -15 10 -14 16 2 8 20 -8 42 -18
25z"/>
<path d="M13240 5551 c-21 -7 -17 -8 23 -12 51 -5 80 4 52 15 -20 7 -42 6 -75
-3z"/>
<path d="M12940 5505 c-28 -29 -31 -35 -15 -35 10 0 26 7 36 16 17 15 19 15
34 0 9 -9 23 -16 31 -16 10 0 12 -5 7 -12 -11 -19 -12 -38 -2 -38 16 0 9 -18
-8 -23 -13 -3 -12 -5 5 -6 21 -1 23 -5 20 -43 -3 -42 -4 -43 -43 -49 l-40 -6
45 -2 c41 -1 47 2 56 27 14 36 54 46 116 27 41 -12 49 -11 89 7 31 14 55 18
82 14 28 -5 37 -3 37 8 0 15 -24 18 -219 32 -93 6 -93 6 -106 38 -13 30 -71
96 -85 96 -3 0 -21 -16 -40 -35z"/>
<path d="M12910 5450 c0 -5 5 -10 11 -10 5 0 7 5 4 10 -3 6 -8 10 -11 10 -2 0
-4 -4 -4 -10z"/>
<path d="M12573 5313 c-18 -16 -19 -23 -10 -63 10 -44 10 -45 19 -17 6 18 19
29 36 33 46 10 72 23 72 38 0 30 -86 36 -117 9z"/>
<path d="M12320 5306 c0 -9 5 -16 10 -16 6 0 10 4 10 9 0 6 -4 13 -10 16 -5 3
-10 -1 -10 -9z"/>
<path d="M13108 5239 c-21 -12 -25 -90 -7 -149 9 -30 19 -41 49 -53 29 -11 41
-23 51 -51 20 -57 51 -44 64 27 9 44 -3 63 -46 72 -54 12 -69 72 -29 120 20
25 -49 54 -82 34z"/>
<path d="M11945 5151 c-29 -6 -39 -25 -24 -46 3 -5 9 -22 12 -36 8 -32 52 -53
100 -46 63 8 71 26 37 82 -28 45 -62 58 -125 46z"/>
<path d="M12307 5119 c-17 -10 -37 -16 -59 -18 -5 -1 -8 -14 -8 -31 0 -29 1
-30 48 -30 67 0 74 8 54 52 -15 32 -20 36 -35 27z"/>
<path d="M13342 4998 c-17 -17 -15 -59 4 -86 20 -29 14 -37 -58 -73 -57 -29
-60 -32 -54 -61 3 -16 15 -41 26 -55 11 -14 20 -40 20 -58 0 -49 18 -91 45
-103 22 -10 25 -18 25 -65 0 -32 -6 -61 -16 -75 -19 -28 -15 -77 15 -176 28
-94 35 -99 75 -53 18 20 41 37 50 37 14 0 16 13 16 85 0 79 -2 85 -20 85 -27
0 -40 36 -40 109 0 50 -4 64 -30 96 -16 20 -27 41 -24 46 3 5 30 9 60 9 l54 0
0 50 c0 44 -3 50 -20 50 -34 0 -69 42 -63 76 3 16 11 36 18 44 23 28 28 90 9
111 -19 21 -73 26 -92 7z"/>
<path d="M12470 4985 c-10 -12 -9 -20 4 -40 9 -14 21 -25 26 -25 16 0 23 49
10 65 -16 19 -24 19 -40 0z"/>
<path d="M12944 4985 c-19 -14 -18 -15 6 -35 14 -11 33 -20 43 -20 24 0 23 46
-2 60 -25 13 -23 13 -47 -5z"/>
<path d="M2780 4986 c0 -9 37 -12 55 -5 15 6 11 8 -17 8 -21 1 -38 -1 -38 -3z"/>
<path d="M3433 4983 c9 -2 25 -2 35 0 9 3 1 5 -18 5 -19 0 -27 -2 -17 -5z"/>
<path d="M3513 4945 c0 -27 2 -38 4 -22 2 15 2 37 0 50 -2 12 -4 0 -4 -28z"/>
<path d="M3762 4938 l2 -53 3 47 c4 42 7 47 31 51 24 4 24 4 -5 6 l-33 1 2
-52z"/>
<path d="M6360 4986 c0 -9 37 -12 55 -5 15 6 11 8 -17 8 -21 1 -38 -1 -38 -3z"/>
<path d="M7002 4983 c12 -3 18 -18 21 -51 l3 -47 2 47 c2 35 6 48 20 51 9 3
-1 5 -23 5 -22 0 -32 -2 -23 -5z"/>
<path d="M7353 4983 c9 -2 23 -2 30 0 6 3 -1 5 -18 5 -16 0 -22 -2 -12 -5z"/>
<path d="M9930 4986 c0 -9 37 -12 55 -5 15 6 11 8 -17 8 -21 1 -38 -1 -38 -3z"/>
<path d="M10582 4983 c12 -3 18 -18 21 -51 l3 -47 2 47 c2 35 6 48 20 51 9 3
-1 5 -23 5 -22 0 -32 -2 -23 -5z"/>
<path d="M10663 4945 c0 -27 2 -38 4 -22 2 15 2 37 0 50 -2 12 -4 0 -4 -28z"/>
<path d="M10912 4943 l1 -48 4 42 c3 33 8 43 26 46 18 4 17 5 -5 6 -27 1 -28
-1 -26 -46z"/>
<path d="M12137 4983 c-16 -4 -16 -6 3 -30 11 -14 20 -31 20 -38 0 -35 161
-64 173 -31 8 21 -2 26 -49 26 -63 0 -94 15 -94 44 0 13 -7 27 -16 30 -9 3
-16 5 -17 5 -1 -1 -10 -3 -20 -6z"/>
<path d="M2515 4970 c-3 -5 -1 -10 4 -10 6 0 11 5 11 10 0 6 -2 10 -4 10 -3 0
-8 -4 -11 -10z"/>
<path d="M6095 4970 c-3 -5 -1 -10 4 -10 6 0 11 5 11 10 0 6 -2 10 -4 10 -3 0
-8 -4 -11 -10z"/>
<path d="M9665 4970 c-3 -5 -1 -10 4 -10 6 0 11 5 11 10 0 6 -2 10 -4 10 -3 0
-8 -4 -11 -10z"/>
<path d="M3125 4950 c3 -5 8 -10 11 -10 2 0 4 5 4 10 0 6 -5 10 -11 10 -5 0
-7 -4 -4 -10z"/>
<path d="M3842 4930 c0 -19 2 -27 5 -17 2 9 2 25 0 35 -3 9 -5 1 -5 -18z"/>
<path d="M6442 4932 c-2 -35 20 -54 40 -34 8 8 5 9 -10 5 -17 -4 -21 0 -25 29
l-4 33 -1 -33z"/>
<path d="M6705 4950 c3 -5 8 -10 11 -10 2 0 4 5 4 10 0 6 -5 10 -11 10 -5 0
-7 -4 -4 -10z"/>
<path d="M7412 4930 c0 -19 2 -27 5 -17 2 9 2 25 0 35 -3 9 -5 1 -5 -18z"/>
<path d="M10012 4932 c-2 -35 20 -54 40 -34 8 8 5 9 -10 5 -17 -4 -21 0 -25
29 l-4 33 -1 -33z"/>
<path d="M10364 4945 c-3 -8 -4 -20 -2 -27 3 -7 7 -1 10 15 6 29 1 36 -8 12z"/>
<path d="M10406 4947 c3 -10 9 -15 12 -12 3 3 0 11 -7 18 -10 9 -11 8 -5 -6z"/>
<path d="M11900 4586 c0 -239 4 -376 10 -376 5 0 17 12 26 26 13 19 19 61 25
170 4 79 10 148 13 152 2 4 -4 28 -15 52 -14 31 -19 56 -15 80 16 95 16 129
-1 194 -10 38 -24 71 -30 73 -10 4 -13 -80 -13 -371z"/>
<path d="M2477 4935 c3 -8 9 -12 14 -9 12 7 11 11 -5 17 -10 4 -13 1 -9 -8z"/>
<path d="M6057 4935 c3 -8 9 -12 14 -9 12 7 11 11 -5 17 -10 4 -13 1 -9 -8z"/>
<path d="M9627 4935 c3 -8 9 -12 14 -9 12 7 11 11 -5 17 -10 4 -13 1 -9 -8z"/>
<path d="M3147 4913 c3 -7 9 -10 14 -7 14 8 11 21 -5 21 -8 0 -12 -6 -9 -14z"/>
<path d="M6727 4913 c3 -7 9 -10 14 -7 14 8 11 21 -5 21 -8 0 -12 -6 -9 -14z"/>
<path d="M10240 4919 c0 -15 18 -19 23 -6 3 8 -1 14 -9 14 -8 0 -14 -4 -14 -8z"/>
<path d="M13055 4921 c-52 -11 -41 -34 29 -64 53 -24 68 -26 86 -17 17 9 20
19 18 48 l-3 37 -50 2 c-27 0 -63 -2 -80 -6z"/>
<path d="M3090 4910 c0 -5 5 -10 10 -10 6 0 10 5 10 10 0 6 -4 10 -10 10 -5 0
-10 -4 -10 -10z"/>
<path d="M6670 4910 c0 -5 5 -10 10 -10 6 0 10 5 10 10 0 6 -4 10 -10 10 -5 0
-10 -4 -10 -10z"/>
<path d="M10305 4910 c3 -5 8 -10 11 -10 2 0 4 5 4 10 0 6 -5 10 -11 10 -5 0
-7 -4 -4 -10z"/>
<path d="M2867 4898 c2 -5 10 -8 18 -8 8 0 16 3 18 8 3 4 -5 7 -18 7 -13 0
-21 -3 -18 -7z"/>
<path d="M12552 4903 c-9 -3 -3 -15 18 -39 16 -19 30 -41 30 -49 0 -17 -50
-40 -110 -50 -33 -6 -57 -20 -105 -65 l-61 -57 32 -22 c44 -31 66 -24 77 21
10 41 13 43 107 57 50 8 70 16 85 36 12 14 30 25 42 25 12 0 24 8 28 19 5 18
-18 93 -38 119 -9 12 -79 16 -105 5z"/>
<path d="M10388 4893 c7 -3 16 -2 19 1 4 3 -2 6 -13 5 -11 0 -14 -3 -6 -6z"/>
<path d="M12950 4820 c-12 -7 -11 -12 5 -30 20 -22 35 -13 35 23 0 19 -17 22
-40 7z"/>
<path d="M12123 4745 c-18 -8 -33 -16 -33 -19 0 -3 14 -13 32 -22 33 -17 89
-14 114 7 23 19 17 26 -30 38 -53 13 -44 13 -83 -4z"/>
<path d="M12700 4746 c0 -7 7 -19 15 -26 19 -16 41 1 32 24 -8 20 -47 21 -47
2z"/>
<path d="M7053 4733 c9 -2 23 -2 30 0 6 3 -1 5 -18 5 -16 0 -22 -2 -12 -5z"/>
<path d="M10633 4733 c9 -2 23 -2 30 0 6 3 -1 5 -18 5 -16 0 -22 -2 -12 -5z"/>
<path d="M13108 4680 c-18 -14 -27 -32 -30 -64 -4 -34 -13 -51 -36 -70 -43
-37 -45 -59 -8 -95 32 -31 32 -31 52 -12 11 10 26 33 34 50 7 17 18 31 25 31
22 0 36 27 42 83 9 89 -24 121 -79 77z"/>
<path d="M10319 4673 c-13 -16 -12 -17 4 -4 16 13 21 21 13 21 -2 0 -10 -8
-17 -17z"/>
<path d="M7373 4673 c9 -2 25 -2 35 0 9 3 1 5 -18 5 -19 0 -27 -2 -17 -5z"/>
<path d="M10943 4673 c9 -2 25 -2 35 0 9 3 1 5 -18 5 -19 0 -27 -2 -17 -5z"/>
<path d="M6730 4649 c0 -5 11 -9 25 -9 14 0 25 2 25 4 0 2 -11 6 -25 8 -14 3
-25 1 -25 -3z"/>
<path d="M7058 4643 c7 -3 16 -2 19 1 4 3 -2 6 -13 5 -11 0 -14 -3 -6 -6z"/>
<path d="M10313 4643 c9 -2 23 -2 30 0 6 3 -1 5 -18 5 -16 0 -22 -2 -12 -5z"/>
<path d="M12793 4599 c-28 -33 -29 -69 -4 -100 18 -22 20 -22 62 -9 100 30
104 95 9 123 -44 13 -45 13 -67 -14z"/>
<path d="M12541 4571 l-24 -6 28 -13 c21 -10 30 -10 42 -1 11 10 11 14 1 20
-14 10 -14 10 -47 0z"/>
<path d="M12056 4502 c-15 -18 -15 -20 4 -37 20 -18 21 -18 34 0 10 15 11 23
2 37 -14 23 -19 22 -40 0z"/>
<path d="M13205 4491 c-3 -6 1 -25 9 -43 l14 -33 1 43 c1 39 -10 54 -24 33z"/>
<path d="M2518 4433 c6 -2 18 -2 25 0 6 3 1 5 -13 5 -14 0 -19 -2 -12 -5z"/>
<path d="M2860 4435 c-1 -5 -1 -21 0 -34 1 -20 -2 -23 -19 -18 -12 3 -21 1
-21 -4 0 -5 9 -9 19 -9 11 0 21 -5 23 -12 8 -24 14 17 7 52 -3 19 -7 31 -9 25z"/>
<path d="M3158 4433 c6 -2 18 -2 25 0 6 3 1 5 -13 5 -14 0 -19 -2 -12 -5z"/>
<path d="M3803 4433 c9 -2 25 -2 35 0 9 3 1 5 -18 5 -19 0 -27 -2 -17 -5z"/>
<path d="M6090 4436 c0 -2 11 -6 25 -8 14 -3 25 -1 25 3 0 5 -11 9 -25 9 -14
0 -25 -2 -25 -4z"/>
<path d="M7080 4436 c0 -2 9 -6 20 -9 11 -3 18 -1 14 4 -5 9 -34 13 -34 5z"/>
<path d="M9660 4436 c0 -2 11 -6 25 -8 14 -3 25 -1 25 3 0 5 -11 9 -25 9 -14
0 -25 -2 -25 -4z"/>
<path d="M10668 4433 c7 -3 16 -2 19 1 4 3 -2 6 -13 5 -11 0 -14 -3 -6 -6z"/>
<path d="M12732 4410 c0 -14 2 -19 5 -12 2 6 2 18 0 25 -3 6 -5 1 -5 -13z"/>
<path d="M7062 4390 c0 -14 2 -19 5 -12 2 6 2 18 0 25 -3 6 -5 1 -5 -13z"/>
<path d="M12881 4354 c-5 -19 -7 -42 -4 -50 7 -18 42 -18 49 -1 4 12 -22 87
-31 87 -2 0 -9 -16 -14 -36z"/>
<path d="M6749 4353 c-13 -16 -12 -17 4 -4 16 13 21 21 13 21 -2 0 -10 -8 -17
-17z"/>
<path d="M3495 4350 c-16 -7 -17 -9 -3 -9 9 -1 20 4 23 9 7 11 7 11 -20 0z"/>
<path d="M7095 4350 c-16 -7 -17 -9 -3 -9 9 -1 20 4 23 9 7 11 7 11 -20 0z"/>
<path d="M2518 4343 c7 -3 16 -2 19 1 4 3 -2 6 -13 5 -11 0 -14 -3 -6 -6z"/>
<path d="M3158 4343 c7 -3 16 -2 19 1 4 3 -2 6 -13 5 -11 0 -14 -3 -6 -6z"/>
<path d="M12322 4260 c0 -19 2 -27 5 -17 2 9 2 25 0 35 -3 9 -5 1 -5 -18z"/>
<path d="M12954 4256 c-8 -20 13 -56 32 -56 23 0 54 19 54 34 0 14 -41 36 -66
36 -8 0 -17 -6 -20 -14z"/>
<path d="M12552 4218 c-11 -25 -29 -49 -40 -52 -17 -6 -72 -72 -72 -88 0 -11
62 -28 101 -28 55 0 84 17 102 59 22 49 22 48 -10 81 -16 15 -35 38 -44 51
l-16 23 -21 -46z"/>
<path d="M12730 4240 c0 -5 7 -7 15 -4 8 4 15 8 15 10 0 2 -7 4 -15 4 -8 0
-15 -4 -15 -10z"/>
<path d="M2493 4095 c0 -27 2 -38 4 -22 2 15 2 37 0 50 -2 12 -4 0 -4 -28z"/>
<path d="M2548 4133 c7 -3 16 -2 19 1 4 3 -2 6 -13 5 -11 0 -14 -3 -6 -6z"/>
<path d="M2883 4095 c0 -27 2 -38 4 -22 2 15 2 37 0 50 -2 12 -4 0 -4 -28z"/>
<path d="M3508 4133 c6 -2 18 -2 25 0 6 3 1 5 -13 5 -14 0 -19 -2 -12 -5z"/>
<path d="M3783 4095 c0 -27 2 -38 4 -22 2 15 2 37 0 50 -2 12 -4 0 -4 -28z"/>
<path d="M6448 4133 c6 -2 18 -2 25 0 6 3 1 5 -13 5 -14 0 -19 -2 -12 -5z"/>
<path d="M6769 4123 c-13 -16 -12 -17 4 -4 9 7 17 15 17 17 0 8 -8 3 -21 -13z"/>
<path d="M7083 4133 c9 -2 25 -2 35 0 9 3 1 5 -18 5 -19 0 -27 -2 -17 -5z"/>
<path d="M7353 4095 c0 -27 2 -38 4 -22 2 15 2 37 0 50 -2 12 -4 0 -4 -28z"/>
<path d="M7395 4130 c-3 -6 1 -7 9 -4 18 7 21 14 7 14 -6 0 -13 -4 -16 -10z"/>
<path d="M10018 4133 c6 -2 18 -2 25 0 6 3 1 5 -13 5 -14 0 -19 -2 -12 -5z"/>
<path d="M10650 4136 c0 -2 11 -6 25 -8 14 -3 25 -1 25 3 0 5 -11 9 -25 9 -14
0 -25 -2 -25 -4z"/>
<path d="M11943 4118 c-32 -10 -50 -38 -39 -57 4 -5 29 -14 56 -20 41 -9 57
-8 91 5 49 20 48 42 -1 66 -40 19 -61 20 -107 6z"/>
<path d="M13430 4115 c-8 -10 -10 -29 -6 -57 8 -49 21 -68 47 -68 17 0 19 8
19 70 0 67 -1 70 -24 70 -13 0 -29 -7 -36 -15z"/>
<path d="M6750 4089 c0 -5 5 -7 10 -4 6 3 10 8 10 11 0 2 -4 4 -10 4 -5 0 -10
-5 -10 -11z"/>
<path d="M10325 4089 c-4 -6 -5 -12 -2 -15 2 -3 7 2 10 11 7 17 1 20 -8 4z"/>
<path d="M12307 4093 c-11 -11 -7 -46 8 -73 10 -17 14 -20 15 -9 0 9 9 28 20
42 20 26 20 26 1 36 -23 13 -35 14 -44 4z"/>
<path d="M3823 4073 c9 -2 25 -2 35 0 9 3 1 5 -18 5 -19 0 -27 -2 -17 -5z"/>
<path d="M6123 4073 c9 -2 25 -2 35 0 9 3 1 5 -18 5 -19 0 -27 -2 -17 -5z"/>
<path d="M9693 4073 c9 -2 25 -2 35 0 9 3 1 5 -18 5 -19 0 -27 -2 -17 -5z"/>
<path d="M7415 4050 c-16 -7 -17 -9 -3 -9 9 -1 20 4 23 9 7 11 7 11 -20 0z"/>
<path d="M3183 4043 c9 -2 23 -2 30 0 6 3 -1 5 -18 5 -16 0 -22 -2 -12 -5z"/>
<path d="M3508 4043 c7 -3 16 -2 19 1 4 3 -2 6 -13 5 -11 0 -14 -3 -6 -6z"/>
<path d="M6448 4043 c7 -3 16 -2 19 1 4 3 -2 6 -13 5 -11 0 -14 -3 -6 -6z"/>
<path d="M10018 4043 c7 -3 16 -2 19 1 4 3 -2 6 -13 5 -11 0 -14 -3 -6 -6z"/>
<path d="M11900 3740 c0 -115 2 -210 4 -210 2 0 17 7 32 15 16 8 37 15 47 15
10 0 29 11 42 24 13 13 44 39 70 57 l45 33 -31 13 c-17 7 -45 13 -61 13 -36 0
-75 38 -103 100 l-19 42 37 34 c29 27 46 34 79 35 l43 1 -40 8 c-22 5 -53 13
-68 19 -16 6 -39 11 -53 11 l-24 0 0 -210z"/>
<path d="M12361 3921 c-11 -7 -3 -12 30 -21 24 -7 59 -18 77 -26 28 -12 33
-12 38 0 3 8 4 23 2 33 -3 15 -15 18 -68 21 -36 1 -71 -2 -79 -7z"/>
<path d="M12525 3850 c-10 -16 29 -50 57 -50 28 0 58 -18 58 -35 0 -8 7 -15
15 -15 8 0 15 8 15 19 0 21 17 37 44 42 11 2 21 9 23 15 2 7 -20 13 -59 17
-35 4 -82 9 -104 13 -29 4 -44 2 -49 -6z"/>
<path d="M2543 3833 c9 -2 25 -2 35 0 9 3 1 5 -18 5 -19 0 -27 -2 -17 -5z"/>
<path d="M3520 3836 c0 -2 9 -6 20 -9 11 -3 18 -1 14 4 -5 9 -34 13 -34 5z"/>
<path d="M6778 3833 c6 -2 18 -2 25 0 6 3 1 5 -13 5 -14 0 -19 -2 -12 -5z"/>
<path d="M7418 3833 c6 -2 18 -2 25 0 6 3 1 5 -13 5 -14 0 -19 -2 -12 -5z"/>
<path d="M10353 3833 c9 -2 23 -2 30 0 6 3 -1 5 -18 5 -16 0 -22 -2 -12 -5z"/>
<path d="M10910 3836 c0 -2 9 -6 20 -9 11 -3 18 -1 14 4 -5 9 -34 13 -34 5z"/>
<path d="M10993 3833 c9 -2 23 -2 30 0 6 3 -1 5 -18 5 -16 0 -22 -2 -12 -5z"/>
<path d="M3502 3790 c0 -14 2 -19 5 -12 2 6 2 18 0 25 -3 6 -5 1 -5 -13z"/>
<path d="M6709 3773 c-13 -16 -12 -17 4 -4 9 7 17 15 17 17 0 8 -8 3 -21 -13z"/>
<path d="M9649 3773 c-13 -16 -12 -17 4 -4 9 7 17 15 17 17 0 8 -8 3 -21 -13z"/>
<path d="M10919 3773 c-13 -16 -12 -17 4 -4 16 13 21 21 13 21 -2 0 -10 -8
-17 -17z"/>
<path d="M7093 3773 c9 -2 25 -2 35 0 9 3 1 5 -18 5 -19 0 -27 -2 -17 -5z"/>
<path d="M10663 3773 c9 -2 25 -2 35 0 9 3 1 5 -18 5 -19 0 -27 -2 -17 -5z"/>
<path d="M3430 3749 c0 -5 11 -9 25 -9 14 0 25 2 25 4 0 2 -11 6 -25 8 -14 3
-25 1 -25 -3z"/>
<path d="M3535 3750 c-16 -7 -17 -9 -3 -9 9 -1 20 4 23 9 7 11 7 11 -20 0z"/>
<path d="M6370 3749 c0 -5 11 -9 25 -9 14 0 25 2 25 4 0 2 -11 6 -25 8 -14 3
-25 1 -25 -3z"/>
<path d="M6450 3749 c0 -5 11 -9 25 -9 14 0 25 2 25 4 0 2 -11 6 -25 8 -14 3
-25 1 -25 -3z"/>
<path d="M9940 3749 c0 -5 11 -9 25 -9 14 0 25 2 25 4 0 2 -11 6 -25 8 -14 3
-25 1 -25 -3z"/>
<path d="M10020 3749 c0 -5 11 -9 25 -9 14 0 25 2 25 4 0 2 -11 6 -25 8 -14 3
-25 1 -25 -3z"/>
<path d="M3773 3743 c9 -2 25 -2 35 0 9 3 1 5 -18 5 -19 0 -27 -2 -17 -5z"/>
<path d="M6073 3743 c9 -2 23 -2 30 0 6 3 -1 5 -18 5 -16 0 -22 -2 -12 -5z"/>
<path d="M6703 3743 c9 -2 23 -2 30 0 6 3 -1 5 -18 5 -16 0 -22 -2 -12 -5z"/>
<path d="M6778 3743 c7 -3 16 -2 19 1 4 3 -2 6 -13 5 -11 0 -14 -3 -6 -6z"/>
<path d="M7013 3743 c9 -2 25 -2 35 0 9 3 1 5 -18 5 -19 0 -27 -2 -17 -5z"/>
<path d="M7333 3743 c9 -2 23 -2 30 0 6 3 -1 5 -18 5 -16 0 -22 -2 -12 -5z"/>
<path d="M7418 3743 c7 -3 16 -2 19 1 4 3 -2 6 -13 5 -11 0 -14 -3 -6 -6z"/>
<path d="M9643 3743 c9 -2 23 -2 30 0 6 3 -1 5 -18 5 -16 0 -22 -2 -12 -5z"/>
<path d="M10273 3743 c9 -2 23 -2 30 0 6 3 -1 5 -18 5 -16 0 -22 -2 -12 -5z"/>
<path d="M10593 3743 c9 -2 23 -2 30 0 6 3 -1 5 -18 5 -16 0 -22 -2 -12 -5z"/>
<path d="M10913 3743 c9 -2 23 -2 30 0 6 3 -1 5 -18 5 -16 0 -22 -2 -12 -5z"/>
<path d="M13440 3730 c-8 -6 -31 -14 -50 -20 -20 -5 -44 -16 -54 -23 -19 -14
-19 -15 2 -49 38 -60 21 -118 -32 -118 -13 0 -37 -3 -55 -6 -26 -5 -36 -1 -64
27 -19 19 -36 40 -38 48 -4 10 -14 12 -37 6 -31 -6 -32 -8 -26 -48 4 -24 17
-53 30 -67 24 -25 25 -25 69 -9 53 19 54 18 70 -60 8 -42 17 -58 37 -70 14 -9
40 -33 58 -54 26 -30 31 -44 28 -72 -5 -40 3 -45 68 -45 l44 0 0 54 c0 52 -1
55 -27 58 -55 6 -51 118 5 126 22 3 22 5 22 168 0 150 -2 164 -17 164 -10 0
-25 -5 -33 -10z"/>
<path d="M12893 3676 c-74 -18 -82 -22 -97 -53 -20 -42 -20 -56 -1 -94 32 -61
-20 -94 -95 -60 -27 12 -50 16 -59 11 -31 -15 -143 -40 -186 -40 -63 0 -77 -7
-62 -31 10 -16 19 -18 57 -13 37 5 53 2 81 -15 48 -30 108 -27 168 6 43 24 52
26 76 15 15 -7 29 -21 32 -32 5 -17 11 -19 39 -14 26 5 50 -2 107 -29 41 -19
77 -43 81 -52 3 -9 -1 -33 -10 -53 -14 -33 -13 -40 2 -74 22 -49 12 -84 -31
-109 -19 -11 -37 -29 -40 -38 -3 -10 -14 -26 -25 -36 -18 -17 -23 -17 -78 -1
-99 27 -172 18 -172 -24 0 -13 17 -26 54 -44 30 -14 57 -29 59 -34 3 -4 -7
-32 -22 -62 l-27 -55 -64 3 c-36 2 -75 10 -87 18 -20 13 -53 19 -53 10 0 -2 7
-20 15 -39 8 -20 15 -58 15 -84 0 -33 3 -43 9 -34 7 11 31 15 87 15 l77 1 18
-50 c9 -27 18 -71 18 -97 1 -43 -2 -49 -29 -63 -17 -9 -41 -33 -54 -53 -13
-21 -36 -46 -50 -55 -34 -23 -32 -38 7 -62 36 -23 47 -64 23 -84 -8 -7 -36
-11 -68 -9 -46 3 -53 6 -56 26 -7 46 -82 68 -106 30 -14 -22 27 -68 61 -68 16
0 27 -8 33 -24 5 -13 14 -27 20 -31 5 -3 19 -24 30 -46 14 -26 29 -41 48 -45
15 -4 44 -16 66 -26 45 -23 56 -17 63 38 3 31 -1 46 -21 73 l-26 34 30 19 c31
18 50 53 50 91 0 11 11 37 24 56 29 42 32 60 22 123 -6 31 -3 72 8 125 11 57
13 89 6 118 -9 36 -7 44 20 82 l29 42 -29 39 -28 39 22 28 c20 25 24 26 60 17
48 -14 59 -9 90 39 26 38 46 46 80 33 11 -4 16 -19 16 -49 0 -68 28 -122 43
-82 5 14 -16 148 -27 165 -11 19 43 50 99 57 30 4 62 13 72 20 16 12 16 15 3
28 -23 21 -91 37 -130 31 -28 -5 -39 -1 -54 15 -25 27 -9 47 48 62 48 12 65
30 59 63 -4 18 -21 31 -73 54 -37 17 -89 36 -116 42 -27 6 -68 24 -93 40 -24
16 -59 32 -78 36 -55 10 -60 36 -19 93 20 27 36 56 36 65 0 13 11 16 49 16 42
0 51 3 56 21 13 40 -12 46 -102 25z"/>
<path d="M1456 3601 c-15 -16 -15 -22 -4 -40 15 -25 46 -24 62 2 8 12 8 22 0
35 -16 24 -37 26 -58 3z"/>
<path d="M396 3597 c-18 -13 -18 -14 3 -20 28 -7 53 2 48 17 -6 17 -30 18 -51
3z"/>
<path d="M12455 3590 c-4 -6 22 -10 70 -10 48 0 74 4 70 10 -3 6 -35 10 -70
10 -35 0 -67 -4 -70 -10z"/>
<path d="M2580 3535 c-1 -5 -1 -21 0 -34 1 -20 -2 -23 -19 -18 -12 3 -21 1
-21 -4 0 -5 9 -9 19 -9 11 0 21 -5 23 -12 8 -24 14 17 7 52 -3 19 -7 31 -9 25z"/>
<path d="M2878 3533 c6 -2 18 -2 25 0 6 3 1 5 -13 5 -14 0 -19 -2 -12 -5z"/>
<path d="M3523 3533 c9 -2 23 -2 30 0 6 3 -1 5 -18 5 -16 0 -22 -2 -12 -5z"/>
<path d="M10268 3533 c6 -2 18 -2 25 0 6 3 1 5 -13 5 -14 0 -19 -2 -12 -5z"/>
<path d="M10358 3533 c7 -3 16 -2 19 1 4 3 -2 6 -13 5 -11 0 -14 -3 -6 -6z"/>
<path d="M10603 3533 c9 -2 23 -2 30 0 6 3 -1 5 -18 5 -16 0 -22 -2 -12 -5z"/>
<path d="M12122 3518 c-8 -8 -9 -15 -1 -25 14 -16 34 -17 60 -2 16 8 18 13 8
25 -14 17 -51 18 -67 2z"/>
<path d="M3185 3489 c-4 -6 -5 -12 -2 -15 2 -3 7 2 10 11 7 17 1 20 -8 4z"/>
<path d="M2489 3473 c-13 -16 -12 -17 4 -4 9 7 17 15 17 17 0 8 -8 3 -21 -13z"/>
<path d="M6069 3473 c-13 -16 -12 -17 4 -4 16 13 21 21 13 21 -2 0 -10 -8 -17
-17z"/>
<path d="M10039 3453 c-13 -16 -12 -17 4 -4 16 13 21 21 13 21 -2 0 -10 -8
-17 -17z"/>
<path d="M2790 3449 c0 -5 11 -9 25 -9 14 0 25 2 25 4 0 2 -11 6 -25 8 -14 3
-25 1 -25 -3z"/>
<path d="M3110 3449 c0 -5 11 -9 25 -9 14 0 25 2 25 4 0 2 -11 6 -25 8 -14 3
-25 1 -25 -3z"/>
<path d="M9620 3449 c0 -5 11 -9 25 -9 14 0 25 2 25 4 0 2 -11 6 -25 8 -14 3
-25 1 -25 -3z"/>
<path d="M9940 3449 c0 -5 11 -9 25 -9 14 0 25 2 25 4 0 2 -11 6 -25 8 -14 3
-25 1 -25 -3z"/>
<path d="M10615 3450 c-16 -7 -17 -9 -3 -9 9 -1 20 4 23 9 7 11 7 11 -20 0z"/>
<path d="M11969 3444 c-11 -14 -10 -18 6 -30 23 -17 33 -17 64 0 l24 13 -24
17 c-30 20 -53 20 -70 0z"/>
<path d="M2483 3443 c9 -2 23 -2 30 0 6 3 -1 5 -18 5 -16 0 -22 -2 -12 -5z"/>
<path d="M2878 3443 c7 -3 16 -2 19 1 4 3 -2 6 -13 5 -11 0 -14 -3 -6 -6z"/>
<path d="M3443 3443 c9 -2 23 -2 30 0 6 3 -1 5 -18 5 -16 0 -22 -2 -12 -5z"/>
<path d="M3763 3443 c9 -2 23 -2 30 0 6 3 -1 5 -18 5 -16 0 -22 -2 -12 -5z"/>
<path d="M6063 3443 c9 -2 23 -2 30 0 6 3 -1 5 -18 5 -16 0 -22 -2 -12 -5z"/>
<path d="M10268 3443 c7 -3 16 -2 19 1 4 3 -2 6 -13 5 -11 0 -14 -3 -6 -6z"/>
<path d="M8564 3266 c-8 -22 3 -49 19 -43 6 2 12 14 12 27 0 27 -22 39 -31 16z"/>
<path d="M11985 3270 c-8 -13 20 -24 36 -15 8 6 7 10 -2 16 -18 11 -26 11 -34
-1z"/>
<path d="M12150 3221 c0 -42 9 -55 33 -45 13 5 13 10 -2 45 -21 50 -31 50 -31
0z"/>
<path d="M2493 3233 c9 -2 23 -2 30 0 6 3 -1 5 -18 5 -16 0 -22 -2 -12 -5z"/>
<path d="M2573 3195 c0 -27 2 -38 4 -22 2 15 2 37 0 50 -2 12 -4 0 -4 -28z"/>
<path d="M1146 3207 c-13 -18 -13 -29 -4 -60 6 -20 15 -37 19 -37 17 0 26 104
9 115 -5 3 -16 -5 -24 -18z"/>
<path d="M12792 3197 c-26 -12 -25 -24 4 -43 16 -11 24 -11 48 5 l29 19 -29
15 c-22 11 -35 12 -52 4z"/>
<path d="M12381 3098 c-7 -18 -18 -45 -26 -60 -13 -26 -12 -29 12 -48 31 -24
32 -24 130 -5 43 8 96 17 118 20 36 6 38 8 22 20 -10 7 -23 29 -28 50 -13 45
-29 52 -78 33 -35 -14 -41 -14 -72 3 -49 26 -65 24 -78 -13z"/>
<path d="M11989 3088 c-13 -24 -14 -71 -4 -146 7 -48 10 -53 29 -48 11 4 40 9
63 12 47 7 50 5 74 -90 l13 -49 14 31 c8 17 28 36 44 43 15 6 28 15 28 19 0 4
-24 18 -53 31 -56 24 -77 52 -77 98 0 40 -31 81 -77 101 -43 19 -43 19 -54 -2z"/>
<path d="M8330 2990 c0 -29 2 -51 4 -49 8 8 10 88 3 95 -4 4 -7 -17 -7 -46z"/>
<path d="M95 3020 c-11 -18 5 -31 25 -20 10 5 29 10 42 11 22 0 22 1 3 9 -28
12 -63 12 -70 0z"/>
<path d="M667 2945 c-4 -8 -2 -17 3 -20 6 -4 10 3 10 14 0 25 -6 27 -13 6z"/>
<path d="M976 2947 c-16 -12 -16 -14 3 -31 21 -19 21 -19 42 0 19 17 19 19 3
31 -10 7 -21 13 -24 13 -3 0 -14 -6 -24 -13z"/>
<path d="M13442 2933 c2 -10 13 -19 26 -21 17 -3 22 2 22 17 0 16 -6 21 -26
21 -19 0 -25 -5 -22 -17z"/>
<path d="M11900 2858 c0 -15 -8 -18 -49 -18 l-48 0 -7 -41 c-4 -22 -4 -56 0
-75 5 -29 3 -35 -21 -46 -37 -17 -53 -3 -79 66 -36 96 -45 100 -218 93 -155
-6 -196 -17 -260 -68 -23 -19 -31 -21 -51 -12 -14 7 -28 24 -32 40 -3 15 -12
31 -18 35 -7 4 -77 7 -157 7 -135 0 -156 -7 -78 -23 18 -4 32 -18 45 -43 14
-30 28 -41 63 -53 59 -20 70 -27 70 -50 0 -10 11 -27 25 -38 27 -22 33 -42 12
-42 -23 0 -70 -57 -63 -76 6 -15 17 -16 89 -12 45 3 88 4 95 1 6 -3 12 -18 12
-34 0 -27 2 -29 40 -29 22 0 40 5 40 11 0 15 -39 63 -57 69 -10 4 6 17 46 38
61 32 61 32 81 12 11 -11 20 -30 20 -41 0 -12 16 -37 36 -55 l35 -34 133 0
c82 0 136 4 143 11 8 8 13 8 17 0 4 -6 36 -11 72 -11 60 0 64 -1 64 -23 0 -13
9 -26 22 -32 24 -11 51 -87 43 -123 -4 -15 -15 -25 -35 -29 l-30 -5 0 -88 c0
-69 3 -89 15 -94 16 -6 20 -41 6 -50 -5 -4 -12 0 -14 6 -3 7 -6 -31 -6 -84 -1
-54 3 -98 7 -98 5 0 28 14 50 30 35 25 42 36 42 64 0 19 9 50 20 69 11 18 25
59 31 89 11 52 10 57 -15 95 -30 45 -25 78 14 106 13 9 17 17 11 22 -6 3 -11
22 -11 41 0 19 -7 50 -15 70 -11 26 -13 58 -8 137 6 96 8 104 35 129 28 26 28
27 8 33 -27 9 -60 62 -60 97 0 15 -4 30 -10 33 -6 4 -10 -8 -10 -30 0 -27 -8
-44 -29 -66 -34 -34 -42 -35 -63 -11 -25 29 -27 48 -8 80 14 23 28 31 52 34
44 4 42 21 -4 29 -32 5 -38 3 -38 -13z m-275 -152 c16 -12 17 -16 6 -30 -17
-20 -45 -21 -61 -1 -10 12 -10 18 0 30 16 19 31 19 55 1z m-25 -174 c0 -4 -21
-15 -47 -24 -44 -16 -49 -16 -60 -1 -7 9 -10 20 -7 24 6 11 114 12 114 1z"/>
<path d="M12472 2868 c-7 -7 -7 -17 0 -34 13 -28 28 -22 28 11 0 28 -12 39
-28 23z"/>
<path d="M829 2862 c-8 -1 -21 -19 -28 -38 -7 -19 -19 -38 -27 -41 -7 -3 -16
-21 -20 -41 -10 -55 -21 -72 -81 -129 -52 -49 -55 -54 -49 -90 3 -21 9 -66 12
-100 7 -61 8 -63 35 -63 28 0 29 1 23 39 -7 47 0 62 76 150 l59 69 -25 37
c-29 43 -25 65 9 65 31 0 56 29 77 89 l16 49 -30 4 c-17 2 -38 2 -47 0z"/>
<path d="M6456 2825 c4 -8 8 -15 10 -15 2 0 4 7 4 15 0 8 -4 15 -10 15 -5 0
-7 -7 -4 -15z"/>
<path d="M9660 2814 c-6 -14 -10 -31 -10 -38 0 -23 -13 -26 -27 -6 -17 24 -70
35 -107 20 -21 -7 -25 -14 -18 -23 5 -6 16 -31 23 -55 16 -56 28 -64 75 -54
32 6 42 15 57 45 l17 37 71 0 c82 0 109 11 109 45 0 51 -6 55 -96 55 -81 0
-85 -1 -94 -26z"/>
<path d="M9967 2810 c-10 -17 -16 -38 -13 -48 5 -15 14 -17 59 -12 28 3 63 13
77 22 19 13 48 17 115 17 84 -1 91 -2 123 -30 25 -22 42 -29 76 -29 34 0 49
-6 75 -31 39 -37 73 -34 111 12 20 24 33 29 67 29 31 0 45 5 52 19 15 28 -7
49 -59 56 -45 6 -46 6 -63 -29 -9 -20 -25 -37 -34 -37 -31 -2 -48 2 -58 15 -6
7 -20 16 -33 20 -12 4 -30 18 -38 32 l-16 24 -212 0 -212 0 -17 -30z"/>
<path d="M9212 2788 c-28 -59 -20 -182 13 -194 14 -6 165 91 165 105 0 5 11
25 25 45 l24 36 -22 1 c-43 2 -62 -3 -84 -24 -13 -11 -23 -15 -23 -9 0 10 -70
62 -83 62 -2 0 -9 -10 -15 -22z"/>
<path d="M8404 2777 c-3 -9 -1 -24 4 -33 9 -16 10 -15 17 5 8 27 -11 54 -21
28z"/>
<path d="M13207 2783 c-3 -4 -8 -29 -12 -54 -6 -40 -4 -49 19 -76 14 -17 26
-36 26 -41 0 -6 14 -22 31 -35 l32 -25 44 30 c44 30 44 30 22 46 -12 8 -41 25
-63 37 -34 17 -44 30 -57 70 -16 47 -32 65 -42 48z"/>
<path d="M7521 2776 c8 -8 88 -10 95 -3 4 4 -17 7 -46 7 -29 0 -51 -2 -49 -4z"/>
<path d="M8822 2760 c0 -14 2 -19 5 -12 2 6 2 18 0 25 -3 6 -5 1 -5 -13z"/>
<path d="M13458 2773 c6 -2 18 -2 25 0 6 3 1 5 -13 5 -14 0 -19 -2 -12 -5z"/>
<path d="M6616 2711 c-4 -5 -12 -50 -20 -99 -7 -49 -16 -94 -20 -100 -4 -7 -1
-12 9 -12 9 0 13 -4 10 -10 -3 -5 1 -10 10 -10 8 0 21 12 27 28 7 15 23 44 36
65 21 34 22 42 10 73 -14 40 -53 81 -62 65z"/>
<path d="M13044 2699 c-9 -16 18 -30 33 -17 7 6 10 14 7 19 -7 13 -31 11 -40
-2z"/>
<path d="M1066 2658 c-20 -28 -20 -52 -1 -72 13 -13 19 -13 55 1 22 9 40 19
40 23 0 4 -18 21 -39 38 l-40 32 -15 -22z"/>
<path d="M10836 2652 c-9 -10 -16 -24 -16 -30 0 -7 -9 -21 -19 -31 -15 -15
-29 -18 -58 -14 -55 7 -146 -44 -173 -98 l-20 -39 89 0 c49 0 92 4 95 9 3 5
18 12 33 16 33 8 62 32 73 61 6 15 23 23 71 32 34 6 66 17 71 24 24 39 -9 69
-88 81 -32 5 -45 3 -58 -11z"/>
<path d="M8322 2628 c-15 -15 -16 -161 -1 -186 10 -16 16 -17 45 -7 36 12 54
25 37 25 -6 0 -18 33 -27 74 -19 86 -35 113 -54 94z"/>
<path d="M508 2618 c-3 -7 -2 -24 2 -38 l7 -25 8 28 c8 29 -8 61 -17 35z"/>
<path d="M1801 2621 c-10 -7 -10 -10 -1 -16 6 -4 16 -3 22 3 13 13 -4 23 -21
13z"/>
<path d="M9780 2620 c-9 -6 -13 -22 -12 -47 2 -21 -4 -55 -12 -75 -9 -21 -16
-42 -16 -48 0 -6 35 -10 90 -10 98 0 96 -2 81 63 -6 26 -24 53 -56 83 -51 47
-53 48 -75 34z"/>
<path d="M7581 2563 c-5 -27 -12 -65 -15 -85 -4 -37 -3 -38 31 -38 l34 0 -6
48 c-13 104 -17 122 -25 122 -4 0 -13 -21 -19 -47z"/>
<path d="M8491 2566 c-1 -34 2 -47 9 -40 7 7 7 24 1 50 l-9 39 -1 -49z"/>
<path d="M6443 2588 c-32 -41 -33 -55 -7 -102 26 -46 26 -46 79 -46 38 0 55 4
59 15 4 10 -1 15 -14 15 -13 0 -22 10 -27 29 -7 24 -65 101 -76 101 -3 0 -9
-6 -14 -12z"/>
<path d="M10165 2558 c-21 -18 -65 -46 -98 -63 -96 -48 -88 -55 60 -55 71 0
133 4 139 9 5 4 32 16 60 26 131 46 105 86 -73 109 -49 6 -54 5 -88 -26z"/>
<path d="M424 2477 c-8 -21 -1 -60 11 -64 6 -1 25 6 44 18 29 17 32 22 20 34
-23 23 -68 30 -75 12z"/>
<path d="M9206 2464 c-9 -23 -8 -24 24 -24 32 0 37 9 18 28 -17 17 -35 15 -42
-4z"/>
<path d="M6776 2455 c-4 -11 2 -15 19 -15 30 0 32 6 6 19 -14 8 -20 7 -25 -4z"/>
<path d="M7105 2450 c-3 -5 -1 -10 4 -10 6 0 11 5 11 10 0 6 -2 10 -4 10 -3 0
-8 -4 -11 -10z"/>
<path d="M13185 2436 c-22 -12 -58 -34 -79 -49 l-40 -26 40 -17 c34 -14 44
-15 78 -3 36 12 41 19 52 61 14 57 5 64 -51 34z"/>
<path d="M12983 2363 c9 -2 25 -2 35 0 9 3 1 5 -18 5 -19 0 -27 -2 -17 -5z"/>
<path d="M578 2333 c-37 -42 -29 -87 13 -81 29 4 49 50 33 75 -15 24 -28 26
-46 6z"/>
<path d="M327 2312 c-34 -38 -9 -69 41 -51 27 10 29 45 3 59 -25 13 -25 13
-44 -8z"/>
<path d="M246 2225 c-19 -28 -8 -65 20 -65 21 0 41 47 28 68 -16 25 -30 25
-48 -3z"/>
<path d="M488 2219 c-19 -10 -23 -44 -12 -98 7 -34 27 -40 57 -16 16 12 18 21
10 67 -9 55 -22 67 -55 47z"/>
<path d="M12917 2218 c-41 -15 -25 -25 53 -33 l69 -7 7 -36 c4 -21 17 -48 29
-62 13 -14 25 -45 29 -70 5 -34 17 -57 45 -88 33 -36 45 -42 77 -42 22 0 45 4
53 9 23 15 19 86 -8 122 -19 25 -22 39 -17 71 8 47 -12 78 -50 78 -23 0 -54
24 -54 42 0 7 -16 9 -44 6 -26 -3 -53 0 -67 8 -28 16 -83 17 -122 2z"/>
<path d="M810 2135 c-15 -18 -7 -43 16 -52 11 -4 24 2 36 17 17 22 17 23 1 36
-24 18 -38 17 -53 -1z"/>
<path d="M8330 2064 l0 -66 23 14 c37 25 35 88 -3 108 -19 10 -20 7 -20 -56z"/>
<path d="M13450 2120 c0 -5 9 -10 20 -10 11 0 20 5 20 10 0 6 -9 10 -20 10
-11 0 -20 -4 -20 -10z"/>
<path d="M8690 2100 c-19 -10 -48 -22 -65 -27 -46 -13 -40 -43 13 -69 54 -26
63 -39 50 -76 -11 -30 -79 -88 -104 -88 -18 0 -41 -36 -60 -95 -9 -27 -28 -65
-41 -83 -23 -31 -24 -35 -9 -51 26 -29 92 -13 138 32 41 42 69 46 98 17 20
-20 20 -20 20 220 0 132 -1 240 -2 239 -2 -1 -19 -9 -38 -19z"/>
<path d="M408 2073 c-36 -43 -32 -73 11 -73 36 0 51 17 51 57 0 28 -4 33 -23
33 -13 0 -31 -8 -39 -17z"/>
<path d="M97 2047 c-7 -19 4 -34 28 -38 12 -3 24 -17 31 -37 15 -48 30 -59 44
-33 14 27 -3 87 -28 100 -35 17 -70 21 -75 8z"/>
<path d="M334 1976 c-8 -22 3 -49 19 -43 6 2 12 14 12 27 0 27 -22 39 -31 16z"/>
<path d="M1290 1970 c-12 -7 -11 -13 10 -35 l25 -26 18 22 c28 35 -12 65 -53
39z"/>
<path d="M0 1950 c0 -20 15 -25 44 -14 28 11 18 34 -14 34 -23 0 -30 -4 -30
-20z"/>
<path d="M92 1893 c-5 -10 -8 -22 -7 -28 2 -5 6 -23 10 -40 l6 -29 20 43 c23
52 23 48 -1 61 -15 8 -21 7 -28 -7z"/>
<path d="M822 1898 c-16 -16 -15 -33 2 -47 21 -18 41 11 26 38 -13 25 -12 25
-28 9z"/>
<path d="M1304 1814 c-11 -21 -35 -44 -57 -55 -21 -11 -41 -27 -44 -35 -7 -19
22 -84 37 -84 6 0 32 16 57 35 25 19 50 35 55 35 5 0 12 10 17 23 23 61 23 63
-12 90 l-34 26 -19 -35z"/>
<path d="M4760 1231 l0 -621 43 0 c58 0 154 24 176 44 10 9 27 16 39 16 12 0
30 10 42 22 l20 22 0 -85 c0 -103 -12 -147 -47 -181 -23 -22 -38 -27 -83 -28
-30 0 -70 2 -88 6 -29 6 -38 2 -68 -27 l-34 -33 0 -173 0 -173 -1860 0 c-1023
0 -1860 3 -1860 8 1 4 7 18 14 32 12 21 12 28 -1 51 -8 14 -24 31 -34 37 -15
10 -20 8 -30 -9 -6 -12 -14 -42 -18 -68 l-6 -46 -388 -3 -387 -2 20 20 c25 25
26 52 2 73 -26 23 -39 21 -58 -9 -16 -24 -16 -26 5 -55 l22 -29 -91 0 c-53 0
-90 -4 -90 -10 0 -7 2255 -10 6745 -10 4490 0 6745 3 6745 10 0 6 -36 10 -89
10 l-89 0 -5 27 c-21 99 -37 157 -52 179 -16 25 -15 27 9 65 l26 39 -32 20
c-41 25 -54 14 -60 -50 -6 -58 -5 -56 -40 -65 -24 -6 -29 -2 -52 43 -21 42
-23 52 -12 61 8 7 19 25 26 41 15 37 -3 70 -48 89 -32 13 -66 71 -102 174 -15
43 -23 53 -48 58 -43 9 -49 15 -67 72 -21 67 -62 153 -93 195 l-24 33 -24 -22
c-36 -34 -40 -79 -14 -152 13 -34 27 -66 32 -72 4 -5 8 -30 8 -56 0 -41 5 -52
41 -88 55 -57 127 -167 139 -213 6 -20 22 -46 36 -57 21 -17 24 -25 19 -54 -5
-24 -2 -37 10 -47 9 -8 28 -36 41 -62 14 -27 30 -51 37 -53 7 -2 38 -11 70
-21 l58 -17 -33 -33 -33 -33 -279 -1 -278 0 -49 36 c-27 20 -49 40 -49 45 0 4
-25 16 -57 25 -49 14 -103 53 -103 74 0 10 -85 67 -111 74 -42 12 -119 49
-119 57 0 5 9 23 20 41 26 43 26 84 0 100 -25 16 -26 34 -2 40 19 5 42 71 42
121 0 39 30 43 58 7 13 -16 29 -30 36 -30 7 0 21 -10 32 -21 10 -12 38 -30 62
-41 30 -14 46 -29 57 -53 10 -25 18 -33 29 -29 9 3 16 9 16 13 1 3 5 26 9 50
10 50 5 71 -15 71 -8 0 -24 17 -38 38 -13 20 -31 44 -41 52 -10 8 -36 39 -58
69 l-39 53 -60 -6 c-79 -9 -88 -14 -95 -46 -5 -27 -5 -28 -24 -9 -10 10 -32
19 -47 19 -17 0 -38 10 -52 25 l-23 24 24 48 c19 37 31 49 56 55 43 11 54 49
25 81 -11 12 -29 41 -41 64 -11 23 -34 50 -51 60 -16 9 -30 20 -30 24 0 16 36
33 82 38 20 2 68 57 79 88 12 36 11 37 -31 73 -39 33 -41 38 -29 58 12 19 29
29 82 46 9 3 20 14 23 23 18 56 39 83 66 84 16 1 33 2 40 3 6 1 15 -13 20 -30
5 -22 17 -35 38 -44 24 -10 30 -18 30 -44 0 -18 -6 -38 -12 -45 -18 -17 15
-41 55 -41 22 0 44 -13 81 -47 61 -57 71 -74 80 -135 13 -85 52 -88 111 -9 41
57 43 70 11 108 -46 55 -66 107 -56 144 16 56 13 69 -25 85 -22 9 -37 23 -41
38 -3 14 -15 33 -26 43 -19 17 -20 17 -39 -6 -10 -13 -19 -29 -19 -36 0 -15
-22 -25 -55 -25 -16 0 -28 9 -37 27 -7 15 -24 33 -38 40 -14 6 -32 25 -41 40
-8 15 -30 33 -48 39 -18 6 -38 21 -44 35 -11 21 -19 24 -67 24 -52 0 -55 -1
-58 -27 -2 -15 2 -36 8 -47 24 -45 -39 -94 -110 -85 -36 4 -41 2 -50 -21 -6
-16 -10 -222 -10 -530 0 -497 0 -503 20 -498 25 7 37 -21 20 -42 -10 -12 -16
-13 -26 -4 -12 10 -14 -25 -14 -220 l0 -231 -1709 0 -1709 0 -7 28 c-8 32 -33
62 -52 62 -8 0 -25 12 -40 26 l-25 25 23 25 c13 14 49 36 80 50 42 19 62 35
78 64 26 46 35 50 122 50 l69 0 0 55 c0 52 -2 55 -27 60 -28 6 -33 9 -87 45
-23 14 -46 19 -100 18 -84 -2 -150 21 -171 61 -13 23 -14 -8 -15 -271 l0 -298
-1745 0 c-960 0 -1745 3 -1745 6 0 3 9 17 20 31 11 14 20 33 20 42 0 47 21 88
52 102 24 10 35 25 46 57 14 44 32 48 32 7 0 -13 4 -26 9 -29 4 -3 11 -24 15
-46 3 -21 14 -54 23 -72 l17 -33 25 23 c63 59 61 39 61 481 0 293 -3 414 -12
438 -10 27 -10 38 0 53 7 11 12 51 12 89 l0 70 -37 10 c-21 5 -51 13 -68 17
-67 15 -73 51 -15 93 37 26 38 29 22 43 -9 9 -29 18 -44 22 -24 5 -31 1 -50
-29 -43 -65 -69 -57 -110 33 -18 39 -19 50 -8 110 6 37 16 72 21 78 6 7 3 23
-8 45 -9 18 -19 57 -21 86 -4 53 -12 64 -69 97 -10 6 -13 -120 -13 -613z
m7170 -251 c0 -5 -4 -10 -10 -10 -5 0 -10 5 -10 10 0 6 5 10 10 10 6 0 10 -4
10 -10z m94 -322 c7 -13 19 -40 26 -61 16 -50 1 -69 -49 -65 -35 3 -36 5 -46
55 -5 28 -14 55 -18 59 -5 5 7 14 25 20 45 17 46 17 62 -8z m-3525 -232 c6 -7
9 -21 5 -30 -8 -21 -82 -22 -110 -2 -19 15 -19 15 1 30 25 19 89 21 104 2z
m3677 -300 c61 -20 86 -34 103 -57 12 -17 32 -34 44 -39 14 -6 -32 -9 -130 -9
l-151 -1 -11 32 c-10 28 -8 36 16 70 14 21 31 37 37 35 6 -2 47 -16 92 -31z"/>
<path d="M945 1811 c-37 -16 -38 -18 -17 -25 25 -8 42 -36 52 -81 5 -25 12
-31 44 -36 21 -3 42 -12 46 -20 11 -18 16 -12 24 31 6 32 4 37 -23 46 -21 8
-32 23 -43 55 -17 51 -29 55 -83 30z"/>
<path d="M1457 1802 c-16 -7 -16 -9 4 -31 20 -21 23 -22 31 -7 10 18 4 46 -9
45 -4 0 -16 -4 -26 -7z"/>
<path d="M2440 1755 c0 -8 4 -15 10 -15 5 0 7 7 4 15 -4 8 -8 15 -10 15 -2 0
-4 -7 -4 -15z"/>
<path d="M2792 1763 c12 -3 18 -18 21 -51 l3 -47 2 47 c2 35 6 48 20 51 9 3
-1 5 -23 5 -22 0 -32 -2 -23 -5z"/>
<path d="M3432 1763 c12 -3 18 -18 21 -51 l3 -47 2 47 c2 35 6 48 20 51 9 3
-1 5 -23 5 -22 0 -32 -2 -23 -5z"/>
<path d="M3513 1725 c0 -27 2 -38 4 -22 2 15 2 37 0 50 -2 12 -4 0 -4 -28z"/>
<path d="M3762 1723 l1 -48 4 42 c3 33 8 43 26 46 18 4 17 5 -5 6 -27 1 -28
-1 -26 -46z"/>
<path d="M6372 1763 c12 -3 18 -18 21 -51 l3 -47 2 47 c2 35 6 48 20 51 9 3
-1 5 -23 5 -22 0 -32 -2 -23 -5z"/>
<path d="M7002 1763 c12 -3 18 -18 21 -51 l3 -47 2 47 c2 35 6 48 20 51 9 3
-1 5 -23 5 -22 0 -32 -2 -23 -5z"/>
<path d="M7083 1725 c0 -27 2 -38 4 -22 2 15 2 37 0 50 -2 12 -4 0 -4 -28z"/>
<path d="M7353 1763 c9 -2 23 -2 30 0 6 3 -1 5 -18 5 -16 0 -22 -2 -12 -5z"/>
<path d="M9590 1755 c0 -8 4 -15 10 -15 5 0 7 7 4 15 -4 8 -8 15 -10 15 -2 0
-4 -7 -4 -15z"/>
<path d="M9930 1766 c0 -9 37 -12 55 -5 15 6 11 8 -17 8 -21 1 -38 -1 -38 -3z"/>
<path d="M10583 1763 c9 -2 25 -2 35 0 9 3 1 5 -18 5 -19 0 -27 -2 -17 -5z"/>
<path d="M10663 1725 c0 -27 2 -38 4 -22 2 15 2 37 0 50 -2 12 -4 0 -4 -28z"/>
<path d="M10912 1723 l1 -48 4 42 c3 33 8 43 26 46 18 4 17 5 -5 6 -27 1 -28
-1 -26 -46z"/>
<path d="M822 1748 c-23 -23 -11 -78 18 -78 14 0 19 -12 24 -59 6 -53 9 -59
32 -64 36 -7 64 21 71 69 5 37 3 42 -18 47 -13 4 -38 7 -56 7 -30 0 -32 2 -35
42 -3 44 -16 56 -36 36z"/>
<path d="M2517 1723 c8 -52 13 -54 13 -5 0 23 -4 42 -9 42 -6 0 -7 -17 -4 -37z"/>
<path d="M6085 1750 c-3 -5 -1 -10 4 -10 6 0 11 5 11 10 0 6 -2 10 -4 10 -3 0
-8 -4 -11 -10z"/>
<path d="M9667 1723 c8 -52 13 -54 13 -5 0 23 -4 42 -9 42 -6 0 -7 -17 -4 -37z"/>
<path d="M6696 1733 c-6 -14 -5 -15 5 -6 7 7 10 15 7 18 -3 3 -9 -2 -12 -12z"/>
<path d="M177 1727 c-3 -7 -1 -20 3 -28 7 -11 10 -10 16 4 4 10 2 23 -3 28 -7
7 -12 6 -16 -4z"/>
<path d="M3125 1730 c3 -5 8 -10 11 -10 2 0 4 5 4 10 0 6 -5 10 -11 10 -5 0
-7 -4 -4 -10z"/>
<path d="M6432 1715 c0 -16 2 -22 5 -12 2 9 2 23 0 30 -3 6 -5 -1 -5 -18z"/>
<path d="M6482 1715 c0 -16 2 -22 5 -12 2 9 2 23 0 30 -3 6 -5 -1 -5 -18z"/>
<path d="M7412 1710 c0 -19 2 -27 5 -17 2 9 2 25 0 35 -3 9 -5 1 -5 -18z"/>
<path d="M10275 1730 c3 -5 8 -10 11 -10 2 0 4 5 4 10 0 6 -5 10 -11 10 -5 0
-7 -4 -4 -10z"/>
<path d="M2480 1720 c-9 -6 -10 -10 -3 -10 6 0 15 5 18 10 8 12 4 12 -15 0z"/>
<path d="M6047 1719 c7 -7 15 -10 18 -7 3 3 -2 9 -12 12 -14 6 -15 5 -6 -5z"/>
<path d="M9630 1720 c-9 -6 -10 -10 -3 -10 6 0 15 5 18 10 8 12 4 12 -15 0z"/>
<path d="M13366 1721 c-3 -5 1 -15 10 -22 13 -10 17 -10 24 1 5 8 6 18 4 22
-7 11 -31 10 -38 -1z"/>
<path d="M6133 1706 c3 -28 32 -43 51 -27 9 8 16 21 15 30 0 11 -3 9 -9 -6 -5
-13 -16 -23 -25 -23 -9 0 -20 10 -25 23 -8 17 -9 18 -7 3z"/>
<path d="M6660 1713 c0 -15 18 -35 23 -27 3 5 -1 15 -9 22 -8 7 -14 9 -14 5z"/>
<path d="M6781 1709 c-1 -21 24 -43 41 -36 8 3 6 6 -5 6 -10 1 -22 11 -27 24
-6 15 -9 17 -9 6z"/>
<path d="M9703 1706 c3 -28 32 -43 51 -27 9 8 16 21 15 30 0 11 -3 9 -9 -6 -5
-13 -16 -23 -25 -23 -9 0 -20 10 -25 23 -8 17 -9 18 -7 3z"/>
<path d="M3147 1693 c3 -7 9 -10 14 -7 14 8 11 21 -5 21 -8 0 -12 -6 -9 -14z"/>
<path d="M10297 1693 c3 -7 9 -10 14 -7 14 8 11 21 -5 21 -8 0 -12 -6 -9 -14z"/>
<path d="M2900 1692 c0 -6 -8 -13 -17 -15 -16 -4 -16 -5 -1 -6 18 -1 34 16 24
26 -3 4 -6 1 -6 -5z"/>
<path d="M3090 1690 c0 -5 5 -10 10 -10 6 0 10 5 10 10 0 6 -4 10 -10 10 -5 0
-10 -4 -10 -10z"/>
<path d="M6725 1690 c3 -5 8 -10 11 -10 2 0 4 5 4 10 0 6 -5 10 -11 10 -5 0
-7 -4 -4 -10z"/>
<path d="M10240 1690 c0 -5 5 -10 10 -10 6 0 10 5 10 10 0 6 -4 10 -10 10 -5
0 -10 -4 -10 -10z"/>
<path d="M2568 1678 c5 -5 16 -8 23 -6 8 3 3 7 -10 11 -17 4 -21 3 -13 -5z"/>
<path d="M10017 1678 c2 -5 10 -8 18 -8 8 0 16 3 18 8 3 4 -5 7 -18 7 -13 0
-21 -3 -18 -7z"/>
<path d="M1476 1652 c-8 -23 -1 -42 14 -42 15 0 19 28 6 46 -13 17 -14 16 -20
-4z"/>
<path d="M8330 1621 c0 -46 8 -51 36 -20 20 22 11 51 -20 57 -13 3 -16 -5 -16
-37z"/>
<path d="M740 1625 c7 -8 16 -15 20 -15 4 0 10 7 14 15 4 11 -2 15 -21 15 -21
0 -24 -2 -13 -15z"/>
<path d="M13256 1605 c-27 -13 -55 -30 -63 -38 -13 -13 -11 -16 18 -25 62 -20
106 -24 128 -13 28 16 26 35 -6 70 l-28 29 -49 -23z"/>
<path d="M405 1560 c-4 -7 -3 -16 3 -22 14 -14 45 -2 40 15 -6 16 -34 21 -43
7z"/>
<path d="M6413 1513 c9 -2 23 -2 30 0 6 3 -1 5 -18 5 -16 0 -22 -2 -12 -5z"/>
<path d="M7058 1513 c6 -2 18 -2 25 0 6 3 1 5 -13 5 -14 0 -19 -2 -12 -5z"/>
<path d="M7379 1503 c-13 -16 -12 -17 4 -4 9 7 17 15 17 17 0 8 -8 3 -21 -13z"/>
<path d="M8631 1499 c-26 -25 -22 -61 10 -94 20 -20 20 -20 35 -1 16 23 18 69
4 97 -13 24 -21 24 -49 -2z"/>
<path d="M10948 1513 c6 -2 18 -2 25 0 6 3 1 5 -13 5 -14 0 -19 -2 -12 -5z"/>
<path d="M1433 1493 c-24 -8 -43 -18 -43 -23 0 -12 78 -21 116 -14 40 7 41 10
12 35 -27 22 -30 22 -85 2z"/>
<path d="M336 1482 c-3 -5 -3 -26 1 -46 7 -42 23 -31 23 16 0 27 -14 45 -24
30z"/>
<path d="M7360 1469 c0 -5 5 -7 10 -4 6 3 10 8 10 11 0 2 -4 4 -10 4 -5 0 -10
-5 -10 -11z"/>
<path d="M6728 1453 c12 -2 30 -2 40 0 9 3 -1 5 -23 4 -22 0 -30 -2 -17 -4z"/>
<path d="M6425 1430 c-16 -7 -17 -9 -3 -9 9 -1 20 4 23 9 7 11 7 11 -20 0z"/>
<path d="M10620 1429 c0 -5 11 -9 25 -9 14 0 25 2 25 4 0 2 -11 6 -25 8 -14 3
-25 1 -25 -3z"/>
<path d="M6093 1423 c9 -2 23 -2 30 0 6 3 -1 5 -18 5 -16 0 -22 -2 -12 -5z"/>
<path d="M10948 1423 c7 -3 16 -2 19 1 4 3 -2 6 -13 5 -11 0 -14 -3 -6 -6z"/>
<path d="M501 1402 c-16 -30 3 -41 49 -28 46 12 50 23 14 36 -37 14 -52 12
-63 -8z"/>
<path d="M12791 1396 c-9 -10 -8 -16 4 -26 13 -10 21 -10 43 -1 26 12 26 13 7
27 -24 18 -39 18 -54 0z"/>
<path d="M13059 1393 c-9 -2 -19 -16 -22 -31 -2 -15 -7 -35 -11 -44 -6 -13 -1
-19 20 -24 22 -6 31 -2 49 20 12 15 35 30 51 35 36 9 43 36 12 45 -25 6 -74 6
-99 -1z"/>
<path d="M327 1336 c-25 -62 -32 -113 -17 -131 24 -29 47 -17 74 40 14 30 31
55 38 55 7 0 -1 10 -19 21 -18 11 -35 29 -38 40 -9 29 -18 23 -38 -25z"/>
<path d="M0 1300 c0 -32 4 -40 18 -40 10 0 29 11 42 25 19 20 21 27 10 40 -7
8 -25 15 -41 15 -27 0 -29 -3 -29 -40z"/>
<path d="M13190 1308 c-11 -18 -20 -38 -20 -45 0 -6 -3 -18 -6 -26 -3 -9 7
-23 26 -37 32 -23 32 -23 91 -5 33 10 62 22 65 26 2 4 -12 20 -33 36 -20 15
-50 40 -66 56 -16 15 -31 27 -33 27 -2 0 -13 -15 -24 -32z"/>
<path d="M905 1310 c-3 -5 1 -10 10 -10 9 0 13 5 10 10 -3 6 -8 10 -10 10 -2
0 -7 -4 -10 -10z"/>
<path d="M661 1236 c-9 -10 -9 -16 -1 -21 17 -10 37 12 24 25 -8 8 -15 6 -23
-4z"/>
<path d="M2838 1213 c6 -2 18 -2 25 0 6 3 1 5 -13 5 -14 0 -19 -2 -12 -5z"/>
<path d="M3483 1213 c9 -2 23 -2 30 0 6 3 -1 5 -18 5 -16 0 -22 -2 -12 -5z"/>
<path d="M6448 1213 c7 -3 16 -2 19 1 4 3 -2 6 -13 5 -11 0 -14 -3 -6 -6z"/>
<path d="M6723 1175 c0 -27 2 -38 4 -22 2 15 2 37 0 50 -2 12 -4 0 -4 -28z"/>
<path d="M7403 1213 c9 -2 23 -2 30 0 6 3 -1 5 -18 5 -16 0 -22 -2 -12 -5z"/>
<path d="M9669 1203 c-13 -16 -12 -17 4 -4 16 13 21 21 13 21 -2 0 -10 -8 -17
-17z"/>
<path d="M9980 1216 c0 -2 11 -6 25 -8 14 -3 25 -1 25 3 0 5 -11 9 -25 9 -14
0 -25 -2 -25 -4z"/>
<path d="M10978 1213 c7 -3 16 -2 19 1 4 3 -2 6 -13 5 -11 0 -14 -3 -6 -6z"/>
<path d="M3145 1169 c-4 -6 -5 -12 -2 -15 2 -3 7 2 10 11 7 17 1 20 -8 4z"/>
<path d="M9650 1169 c0 -5 5 -7 10 -4 6 3 10 8 10 11 0 2 -4 4 -10 4 -5 0 -10
-5 -10 -11z"/>
<path d="M2513 1153 c9 -2 25 -2 35 0 9 3 1 5 -18 5 -19 0 -27 -2 -17 -5z"/>
<path d="M12141 1151 c-11 -7 -10 -11 7 -20 15 -8 23 -7 31 3 9 10 8 15 -5 20
-19 7 -16 8 -33 -3z"/>
<path d="M10639 1133 c-13 -16 -12 -17 4 -4 9 7 17 15 17 17 0 8 -8 3 -21 -13z"/>
<path d="M7070 1129 c0 -5 11 -9 25 -9 14 0 25 2 25 4 0 2 -11 6 -25 8 -14 3
-25 1 -25 -3z"/>
<path d="M2838 1123 c7 -3 16 -2 19 1 4 3 -2 6 -13 5 -11 0 -14 -3 -6 -6z"/>
<path d="M581 1097 c-15 -39 -14 -47 8 -47 27 0 30 10 15 45 l-12 30 -11 -28z"/>
<path d="M8484 1086 c-9 -53 14 -77 36 -37 11 22 -2 71 -19 71 -6 0 -13 -15
-17 -34z"/>
<path d="M75 1012 c-35 -42 -34 -69 1 -83 21 -7 32 -4 65 23 42 34 48 57 23
82 -26 26 -57 19 -89 -22z"/>
<path d="M12118 1001 c-29 -26 -31 -31 -18 -44 29 -28 67 -29 97 -2 l28 25
-28 25 c-35 32 -40 31 -79 -4z"/>
<path d="M901 1001 c-12 -21 4 -81 20 -81 16 0 49 39 49 58 0 40 -51 57 -69
23z"/>
<path d="M417 1003 c-11 -10 -8 -43 4 -43 6 0 19 5 30 11 16 8 18 13 8 25 -12
15 -31 18 -42 7z"/>
<path d="M8373 982 l-43 -27 0 -134 c0 -134 6 -152 25 -83 7 23 22 44 42 57
37 24 51 61 54 136 3 87 -9 96 -78 51z"/>
<path d="M230 975 c33 -19 50 -19 50 0 0 11 -11 15 -37 15 l-38 -1 25 -14z"/>
<path d="M307 895 c-10 -14 -22 -25 -28 -25 -16 0 -58 -53 -59 -74 0 -17 6
-18 53 -13 28 3 65 11 80 18 26 12 27 15 21 58 -4 25 -8 49 -11 54 -9 15 -39
6 -56 -18z"/>
<path d="M2813 875 c0 -27 2 -38 4 -22 2 15 2 37 0 50 -2 12 -4 0 -4 -28z"/>
<path d="M3183 913 c9 -2 23 -2 30 0 6 3 -1 5 -18 5 -16 0 -22 -2 -12 -5z"/>
<path d="M3530 915 c-1 -5 -1 -21 0 -34 1 -20 -2 -23 -19 -18 -12 3 -21 1 -21
-4 0 -5 9 -9 19 -9 11 0 21 -5 23 -12 8 -24 14 17 7 52 -3 19 -7 31 -9 25z"/>
<path d="M3828 913 c6 -2 18 -2 25 0 6 3 1 5 -13 5 -14 0 -19 -2 -12 -5z"/>
<path d="M6393 875 c0 -27 2 -38 4 -22 2 15 2 37 0 50 -2 12 -4 0 -4 -28z"/>
<path d="M6430 916 c0 -2 11 -6 25 -8 14 -3 25 -1 25 3 0 5 -11 9 -25 9 -14 0
-25 -2 -25 -4z"/>
<path d="M7406 911 c-4 -5 3 -7 14 -4 23 6 26 13 6 13 -8 0 -17 -4 -20 -9z"/>
<path d="M8564 909 c-11 -18 11 -31 41 -23 26 7 27 8 10 20 -23 17 -41 18 -51
3z"/>
<path d="M9643 875 c0 -27 2 -38 4 -22 2 15 2 37 0 50 -2 12 -4 0 -4 -28z"/>
<path d="M9693 913 c9 -2 23 -2 30 0 6 3 -1 5 -18 5 -16 0 -22 -2 -12 -5z"/>
<path d="M10338 913 c6 -2 18 -2 25 0 6 3 1 5 -13 5 -14 0 -19 -2 -12 -5z"/>
<path d="M10973 913 c9 -2 25 -2 35 0 9 3 1 5 -18 5 -19 0 -27 -2 -17 -5z"/>
<path d="M10645 869 c-4 -6 -5 -12 -2 -15 2 -3 7 2 10 11 7 17 1 20 -8 4z"/>
<path d="M2869 853 c-13 -16 -12 -17 4 -4 9 7 17 15 17 17 0 8 -8 3 -21 -13z"/>
<path d="M7339 853 c-13 -16 -12 -17 4 -4 16 13 21 21 13 21 -2 0 -10 -8 -17
-17z"/>
<path d="M10008 853 c12 -2 30 -2 40 0 9 3 -1 5 -23 4 -22 0 -30 -2 -17 -4z"/>
<path d="M7089 833 c-13 -16 -12 -17 4 -4 16 13 21 21 13 21 -2 0 -10 -8 -17
-17z"/>
<path d="M13032 834 c-19 -13 -22 -24 -20 -57 3 -37 6 -42 29 -45 24 -3 28 2
38 43 9 36 9 50 0 61 -15 18 -19 18 -47 -2z"/>
<path d="M3195 830 c-16 -7 -17 -9 -3 -9 9 -1 20 4 23 9 7 11 7 11 -20 0z"/>
<path d="M6135 830 c-16 -7 -17 -9 -3 -9 9 -1 20 4 23 9 7 11 7 11 -20 0z"/>
<path d="M7408 828 c5 -5 16 -8 23 -6 8 3 3 7 -10 11 -17 4 -21 3 -13 -5z"/>
<path d="M1282 787 c-23 -23 -42 -46 -42 -49 0 -13 71 -50 85 -44 30 11 37 48
18 94 l-18 43 -43 -44z"/>
<path d="M2863 823 c9 -2 23 -2 30 0 6 3 -1 5 -18 5 -16 0 -22 -2 -12 -5z"/>
<path d="M3828 823 c7 -3 16 -2 19 1 4 3 -2 6 -13 5 -11 0 -14 -3 -6 -6z"/>
<path d="M7333 823 c9 -2 23 -2 30 0 6 3 -1 5 -18 5 -16 0 -22 -2 -12 -5z"/>
<path d="M830 796 c0 -27 -17 -44 -57 -55 -28 -8 -27 -8 12 -15 52 -9 84 -26
103 -53 16 -26 15 -27 -51 -38 -24 -4 -43 -15 -53 -30 -15 -23 -14 -29 11 -95
15 -38 31 -73 36 -76 15 -9 38 15 55 55 8 20 26 46 40 57 25 20 26 24 14 58
-7 23 -9 58 -5 95 8 73 -2 94 -53 109 -52 16 -52 16 -52 -12z"/>
<path d="M1060 795 c-13 -34 -13 -58 2 -90 15 -33 22 -32 49 7 23 31 23 31 3
66 -24 45 -41 51 -54 17z"/>
<path d="M135 756 c-56 -16 -46 -31 23 -31 52 0 57 2 60 23 4 26 -18 28 -83 8z"/>
<path d="M585 750 c-9 -15 3 -62 14 -56 5 3 11 15 14 25 6 24 -17 49 -28 31z"/>
<path d="M12490 729 c0 -5 5 -7 10 -4 6 3 10 8 10 11 0 2 -4 4 -10 4 -5 0 -10
-5 -10 -11z"/>
<path d="M8480 703 c-8 -3 -28 -11 -45 -18 -16 -7 -38 -15 -47 -19 -36 -11
-23 -22 80 -62 29 -12 35 -11 53 7 36 36 4 107 -41 92z"/>
<path d="M13196 671 c-21 -13 -26 -23 -26 -58 0 -23 4 -44 9 -47 4 -3 14 -26
21 -51 7 -25 16 -47 20 -50 4 -2 21 24 38 58 39 76 36 124 -8 149 -25 14 -29
14 -54 -1z"/>
<path d="M13445 650 c3 -5 15 -10 26 -10 10 0 19 5 19 10 0 6 -12 10 -26 10
-14 0 -23 -4 -19 -10z"/>
<path d="M2493 575 c0 -27 2 -38 4 -22 2 15 2 37 0 50 -2 12 -4 0 -4 -28z"/>
<path d="M2535 610 c-3 -6 1 -7 9 -4 18 7 21 14 7 14 -6 0 -13 -4 -16 -10z"/>
<path d="M2813 575 c0 -27 2 -38 4 -22 2 15 2 37 0 50 -2 12 -4 0 -4 -28z"/>
<path d="M3208 613 c7 -3 16 -2 19 1 4 3 -2 6 -13 5 -11 0 -14 -3 -6 -6z"/>
<path d="M6133 613 c9 -2 23 -2 30 0 6 3 -1 5 -18 5 -16 0 -22 -2 -12 -5z"/>
<path d="M6778 613 c6 -2 18 -2 25 0 6 3 1 5 -13 5 -14 0 -19 -2 -12 -5z"/>
<path d="M7413 613 c9 -2 25 -2 35 0 9 3 1 5 -18 5 -19 0 -27 -2 -17 -5z"/>
<path d="M9696 611 c-4 -5 3 -7 14 -4 23 6 26 13 6 13 -8 0 -17 -4 -20 -9z"/>
<path d="M10668 613 c6 -2 18 -2 25 0 6 3 1 5 -13 5 -14 0 -19 -2 -12 -5z"/>
<path d="M1052 567 c-11 -24 -27 -49 -36 -56 -24 -20 -20 -28 17 -35 51 -10
52 -9 59 36 7 47 1 98 -12 98 -4 0 -17 -19 -28 -43z"/>
<path d="M262 580 c0 -14 2 -19 5 -12 2 6 2 18 0 25 -3 6 -5 1 -5 -13z"/>
<path d="M3769 553 c-13 -16 -12 -17 4 -4 9 7 17 15 17 17 0 8 -8 3 -21 -13z"/>
<path d="M3849 553 c-13 -16 -12 -17 4 -4 16 13 21 21 13 21 -2 0 -10 -8 -17
-17z"/>
<path d="M6699 553 c-13 -16 -12 -17 4 -4 9 7 17 15 17 17 0 8 -8 3 -21 -13z"/>
<path d="M9629 553 c-13 -16 -12 -17 4 -4 9 7 17 15 17 17 0 8 -8 3 -21 -13z"/>
<path d="M9969 553 c-13 -16 -12 -17 4 -4 9 7 17 15 17 17 0 8 -8 3 -21 -13z"/>
<path d="M10599 553 c-13 -16 -12 -17 4 -4 9 7 17 15 17 17 0 8 -8 3 -21 -13z"/>
<path d="M10919 553 c-13 -16 -12 -17 4 -4 9 7 17 15 17 17 0 8 -8 3 -21 -13z"/>
<path d="M6448 553 c12 -2 30 -2 40 0 9 3 -1 5 -23 4 -22 0 -30 -2 -17 -4z"/>
<path d="M10983 553 c9 -2 25 -2 35 0 9 3 1 5 -18 5 -19 0 -27 -2 -17 -5z"/>
<path d="M2555 530 c-16 -7 -17 -9 -3 -9 9 -1 20 4 23 9 7 11 7 11 -20 0z"/>
<path d="M6145 530 c-16 -7 -17 -9 -3 -9 9 -1 20 4 23 9 7 11 7 11 -20 0z"/>
<path d="M7088 528 c5 -5 16 -8 23 -6 8 3 3 7 -10 11 -17 4 -21 3 -13 -5z"/>
<path d="M7330 529 c0 -5 11 -9 25 -9 14 0 25 2 25 4 0 2 -11 6 -25 8 -14 3
-25 1 -25 -3z"/>
<path d="M9698 528 c5 -5 16 -8 23 -6 8 3 3 7 -10 11 -17 4 -21 3 -13 -5z"/>
<path d="M10340 529 c0 -5 11 -9 25 -9 14 0 25 2 25 4 0 2 -11 6 -25 8 -14 3
-25 1 -25 -3z"/>
<path d="M3113 523 c9 -2 23 -2 30 0 6 3 -1 5 -18 5 -16 0 -22 -2 -12 -5z"/>
<path d="M3453 523 c9 -2 23 -2 30 0 6 3 -1 5 -18 5 -16 0 -22 -2 -12 -5z"/>
<path d="M3763 523 c9 -2 23 -2 30 0 6 3 -1 5 -18 5 -16 0 -22 -2 -12 -5z"/>
<path d="M3843 523 c9 -2 23 -2 30 0 6 3 -1 5 -18 5 -16 0 -22 -2 -12 -5z"/>
<path d="M6053 523 c9 -2 23 -2 30 0 6 3 -1 5 -18 5 -16 0 -22 -2 -12 -5z"/>
<path d="M6373 523 c9 -2 23 -2 30 0 6 3 -1 5 -18 5 -16 0 -22 -2 -12 -5z"/>
<path d="M6693 523 c9 -2 23 -2 30 0 6 3 -1 5 -18 5 -16 0 -22 -2 -12 -5z"/>
<path d="M7013 523 c9 -2 23 -2 30 0 6 3 -1 5 -18 5 -16 0 -22 -2 -12 -5z"/>
<path d="M9623 523 c9 -2 23 -2 30 0 6 3 -1 5 -18 5 -16 0 -22 -2 -12 -5z"/>
<path d="M9963 523 c9 -2 23 -2 30 0 6 3 -1 5 -18 5 -16 0 -22 -2 -12 -5z"/>
<path d="M10263 523 c9 -2 25 -2 35 0 9 3 1 5 -18 5 -19 0 -27 -2 -17 -5z"/>
<path d="M10593 523 c9 -2 23 -2 30 0 6 3 -1 5 -18 5 -16 0 -22 -2 -12 -5z"/>
<path d="M10668 523 c7 -3 16 -2 19 1 4 3 -2 6 -13 5 -11 0 -14 -3 -6 -6z"/>
<path d="M10913 523 c9 -2 23 -2 30 0 6 3 -1 5 -18 5 -16 0 -22 -2 -12 -5z"/>
<path d="M12725 500 c-4 -6 -3 -16 3 -22 6 -6 12 -6 17 2 4 6 3 16 -3 22 -6 6
-12 6 -17 -2z"/>
<path d="M12640 337 c-12 -9 -14 -23 -10 -54 7 -50 11 -56 34 -47 14 5 16 14
11 48 -10 57 -16 67 -35 53z"/>
<path d="M2558 313 c6 -2 18 -2 25 0 6 3 1 5 -13 5 -14 0 -19 -2 -12 -5z"/>
<path d="M2879 303 c-13 -16 -12 -17 4 -4 16 13 21 21 13 21 -2 0 -10 -8 -17
-17z"/>
<path d="M3193 313 c9 -2 25 -2 35 0 9 3 1 5 -18 5 -19 0 -27 -2 -17 -5z"/>
<path d="M3515 310 c-3 -6 1 -7 9 -4 18 7 21 14 7 14 -6 0 -13 -4 -16 -10z"/>
<path d="M6048 313 c6 -2 18 -2 25 0 6 3 1 5 -13 5 -14 0 -19 -2 -12 -5z"/>
<path d="M6130 316 c0 -2 9 -6 20 -9 11 -3 18 -1 14 4 -5 9 -34 13 -34 5z"/>
<path d="M6383 313 c9 -2 23 -2 30 0 6 3 -1 5 -18 5 -16 0 -22 -2 -12 -5z"/>
<path d="M9703 313 c9 -2 25 -2 35 0 9 3 1 5 -18 5 -19 0 -27 -2 -17 -5z"/>
<path d="M10583 313 c9 -2 23 -2 30 0 6 3 -1 5 -18 5 -16 0 -22 -2 -12 -5z"/>
<path d="M10668 313 c7 -3 16 -2 19 1 4 3 -2 6 -13 5 -11 0 -14 -3 -6 -6z"/>
<path d="M1050 291 c-17 -33 -9 -74 18 -87 12 -6 33 -21 46 -33 23 -21 61 -27
84 -12 9 5 12 25 10 57 -3 45 -6 50 -40 67 -20 10 -52 21 -71 24 -29 4 -37 1
-47 -16z"/>
<path d="M6112 270 c0 -14 2 -19 5 -12 2 6 2 18 0 25 -3 6 -5 1 -5 -13z"/>
<path d="M2860 269 c0 -5 5 -7 10 -4 6 3 10 8 10 11 0 2 -4 4 -10 4 -5 0 -10
-5 -10 -11z"/>
<path d="M3129 253 c-13 -16 -12 -17 4 -4 16 13 21 21 13 21 -2 0 -10 -8 -17
-17z"/>
<path d="M3449 253 c-13 -16 -12 -17 4 -4 16 13 21 21 13 21 -2 0 -10 -8 -17
-17z"/>
<path d="M3769 253 c-13 -16 -12 -17 4 -4 16 13 21 21 13 21 -2 0 -10 -8 -17
-17z"/>
<path d="M816 252 c-2 -4 1 -18 8 -31 l13 -24 16 23 c9 13 14 27 11 32 -6 10
-41 11 -48 0z"/>
<path d="M10359 233 c-13 -16 -12 -17 4 -4 9 7 17 15 17 17 0 8 -8 3 -21 -13z"/>
<path d="M3535 230 c-16 -7 -17 -9 -3 -9 9 -1 20 4 23 9 7 11 7 11 -20 0z"/>
<path d="M6145 230 c-16 -7 -17 -9 -3 -9 9 -1 20 4 23 9 7 11 7 11 -20 0z"/>
<path d="M9620 229 c0 -5 11 -9 25 -9 14 0 25 2 25 4 0 2 -11 6 -25 8 -14 3
-25 1 -25 -3z"/>
<path d="M9940 229 c0 -5 11 -9 25 -9 14 0 25 2 25 4 0 2 -11 6 -25 8 -14 3
-25 1 -25 -3z"/>
<path d="M2473 223 c9 -2 25 -2 35 0 9 3 1 5 -18 5 -19 0 -27 -2 -17 -5z"/>
<path d="M2558 223 c7 -3 16 -2 19 1 4 3 -2 6 -13 5 -11 0 -14 -3 -6 -6z"/>
<path d="M2793 223 c9 -2 25 -2 35 0 9 3 1 5 -18 5 -19 0 -27 -2 -17 -5z"/>
<path d="M3123 223 c9 -2 23 -2 30 0 6 3 -1 5 -18 5 -16 0 -22 -2 -12 -5z"/>
<path d="M3443 223 c9 -2 23 -2 30 0 6 3 -1 5 -18 5 -16 0 -22 -2 -12 -5z"/>
<path d="M3763 223 c9 -2 23 -2 30 0 6 3 -1 5 -18 5 -16 0 -22 -2 -12 -5z"/>
<path d="M6048 223 c7 -3 16 -2 19 1 4 3 -2 6 -13 5 -11 0 -14 -3 -6 -6z"/>
<path d="M6388 223 c7 -3 16 -2 19 1 4 3 -2 6 -13 5 -11 0 -14 -3 -6 -6z"/>
<path d="M10263 223 c9 -2 25 -2 35 0 9 3 1 5 -18 5 -19 0 -27 -2 -17 -5z"/>
<path d="M10588 223 c7 -3 16 -2 19 1 4 3 -2 6 -13 5 -11 0 -14 -3 -6 -6z"/>
<path d="M1392 198 c-16 -16 -15 -53 3 -68 16 -13 30 -7 45 19 13 25 -29 68
-48 49z"/>
<path d="M12565 170 c-3 -5 1 -10 10 -10 9 0 13 5 10 10 -3 6 -8 10 -10 10 -2
0 -7 -4 -10 -10z"/>
<path d="M13437 96 c-7 -19 1 -26 30 -26 16 0 23 6 23 20 0 14 -7 20 -24 20
-13 0 -26 -6 -29 -14z"/>
</g>
</svg>
