<?xml version="1.0" standalone="no"?>
<!DOCTYPE svg PUBLIC "-//W3C//DTD SVG 20010904//EN"
 "http://www.w3.org/TR/2001/REC-SVG-20010904/DTD/svg10.dtd">
<svg version="1.0" xmlns="http://www.w3.org/2000/svg"
 width="442.000000pt" height="114.000000pt" viewBox="0 0 442.000000 114.000000"
 preserveAspectRatio="xMidYMid meet">

<g transform="translate(0.000000,114.000000) scale(0.100000,-0.100000)"
fill="#000000" stroke="none">
<path d="M290 989 c-124 -44 -225 -81 -226 -82 -1 -1 15 -141 35 -312 l36
-310 140 -78 c77 -43 168 -92 202 -109 l61 -31 197 109 c109 60 199 114 202
119 2 6 21 147 41 313 34 268 37 302 23 308 -53 21 -458 154 -471 153 -8 0
-116 -36 -240 -80z m580 -675 c0 -3 -25 -4 -57 -2 l-56 3 -34 80 c-19 44 -36
81 -38 83 -2 2 -69 1 -148 -3 l-145 -7 -30 -77 -29 -76 -62 -3 c-33 -2 -61 1
-61 5 0 5 38 92 83 193 46 102 119 263 162 358 l78 172 168 -360 c93 -198 169
-363 169 -366z"/>
<path d="M490 694 c-25 -59 -46 -110 -47 -113 -2 -3 43 -7 98 -9 l101 -3 -7
23 c-4 13 -29 65 -54 116 l-47 93 -44 -107z"/>
<path d="M3107 810 c-8 -19 -58 -133 -111 -253 -53 -120 -96 -220 -96 -222 0
-3 13 -5 28 -5 27 0 31 7 107 194 44 107 83 192 87 188 7 -7 78 -177 78 -186
0 -3 -24 -6 -54 -6 -52 0 -66 -9 -66 -41 0 -5 33 -9 73 -9 l74 0 27 -70 c27
-67 29 -70 61 -70 l33 0 -107 243 c-59 133 -110 249 -113 257 -4 10 -11 4 -21
-20z"/>
<path d="M1803 780 c-130 -27 -192 -129 -165 -272 22 -121 84 -170 222 -176
47 -2 97 1 113 7 27 10 27 12 27 100 l0 89 -30 4 -30 5 0 -78 0 -77 -30 -7
c-40 -9 -112 3 -148 26 -39 23 -61 66 -69 129 -17 143 66 222 216 207 32 -4
65 -9 74 -13 13 -5 17 0 17 19 0 18 -7 26 -22 30 -50 12 -135 15 -175 7z"/>
<path d="M4230 784 c-8 -1 -32 -5 -52 -9 -83 -13 -126 -92 -94 -168 22 -54 53
-69 157 -76 73 -5 94 -10 105 -26 21 -28 17 -71 -10 -102 -23 -27 -28 -28
-108 -27 -45 1 -95 6 -110 12 -27 11 -28 10 -28 -18 0 -27 3 -29 55 -35 92
-12 191 -2 222 21 69 51 65 171 -7 206 -24 12 -59 18 -108 18 -64 0 -76 3 -97
25 -33 32 -33 74 1 106 22 21 35 24 97 24 40 0 89 -4 110 -8 35 -7 37 -7 37
17 0 21 -6 26 -32 30 -55 8 -122 13 -138 10z"/>
<path d="M1150 556 l0 -226 30 0 30 0 2 181 3 181 135 -180 c126 -169 137
-181 168 -182 l32 0 0 225 0 225 -30 0 -30 0 0 -181 0 -182 -136 179 c-125
165 -138 179 -170 182 l-34 3 0 -225z"/>
<path d="M2092 606 c3 -191 6 -202 72 -250 41 -31 161 -35 218 -7 74 36 82 60
86 259 l4 172 -31 0 -31 0 0 -162 c0 -144 -2 -167 -20 -195 -34 -56 -149 -68
-199 -21 -36 33 -41 61 -41 224 l0 154 -31 0 -31 0 4 -174z"/>
<path d="M2580 555 l0 -225 145 0 145 0 0 25 0 25 -120 0 -120 0 0 200 0 200
-25 0 -25 0 0 -225z"/>
<path d="M3410 555 l0 -225 30 0 30 0 0 206 0 207 86 -5 c96 -5 114 -16 114
-70 0 -38 -37 -74 -90 -88 -55 -15 -52 -28 36 -152 67 -95 70 -98 108 -98 29
0 36 3 29 13 -35 44 -143 196 -143 200 0 3 11 8 25 11 13 3 40 22 60 41 30 30
35 42 35 81 0 37 -6 51 -29 75 l-29 29 -131 0 -131 0 0 -225z"/>
<path d="M3930 621 c0 -201 -13 -241 -79 -241 -16 0 -21 -6 -21 -25 0 -20 5
-25 26 -25 40 0 93 30 109 61 12 21 15 70 15 209 l0 180 -25 0 -25 0 0 -159z"/>
</g>
</svg>
