<?xml version="1.0" standalone="no"?>
<!DOCTYPE svg PUBLIC "-//W3C//DTD SVG 20010904//EN"
 "http://www.w3.org/TR/2001/REC-SVG-20010904/DTD/svg10.dtd">
<svg version="1.0" xmlns="http://www.w3.org/2000/svg"
 width="275.000000pt" height="183.000000pt" viewBox="0 0 275.000000 183.000000"
 preserveAspectRatio="xMidYMid meet">

<g transform="translate(0.000000,183.000000) scale(0.100000,-0.100000)"
fill="#000000" stroke="none">
<path d="M831 1615 c-2 -97 -46 -159 -198 -281 -104 -84 -149 -138 -159 -190
-10 -52 35 -134 124 -223 76 -78 82 -79 27 -1 -73 102 -91 172 -62 243 8 18
38 55 67 82 30 28 83 77 118 110 100 93 136 196 97 280 l-13 30 -1 -50z"/>
<path d="M889 1326 c-88 -38 -125 -62 -167 -110 -66 -76 -64 -136 9 -248 43
-67 46 -80 25 -120 -14 -26 -13 -28 4 -28 22 0 67 51 76 86 10 39 -2 79 -43
140 -67 100 -51 138 105 240 45 30 82 59 82 64 0 15 -8 13 -91 -24z"/>
<path d="M1540 938 c-1 -237 -6 -278 -46 -319 -26 -27 -26 -29 -10 -54 16 -25
18 -25 44 -9 71 42 83 99 80 380 l-3 209 -32 3 -33 3 0 -213z"/>
<path d="M1725 1016 c-22 -6 -39 -16 -38 -21 9 -45 8 -45 58 -29 27 8 56 14
66 14 28 0 49 -28 49 -66 0 -34 -1 -34 -44 -34 -114 0 -183 -78 -142 -159 33
-62 106 -76 164 -30 l27 21 14 -21 c7 -12 23 -21 35 -21 21 0 21 3 18 137 -2
76 -8 151 -14 167 -20 51 -104 69 -193 42z m135 -221 c0 -39 -4 -46 -30 -60
-37 -19 -59 -19 -82 2 -21 19 -23 52 -5 75 16 20 33 26 80 27 l37 1 0 -45z"/>
<path d="M2373 1018 c-29 -7 -43 -16 -43 -27 0 -34 19 -39 72 -23 44 15 52 15
76 1 21 -12 27 -22 27 -49 l0 -35 -60 -6 c-33 -3 -70 -11 -82 -17 -60 -33 -71
-111 -24 -164 25 -28 36 -33 74 -33 34 0 52 6 72 25 22 21 28 22 35 10 5 -8
10 -18 10 -22 0 -5 12 -8 26 -8 l25 0 -3 150 c-3 145 -4 150 -29 175 -30 31
-107 41 -176 23z m137 -222 c0 -41 -3 -45 -37 -61 -53 -25 -87 -12 -91 37 -4
46 24 68 85 68 l43 0 0 -44z"/>
<path d="M1983 1007 c3 -8 26 -83 51 -167 26 -84 49 -156 52 -161 3 -5 24 -9
47 -9 l42 0 29 87 c33 100 66 220 66 246 0 13 -8 17 -34 17 -34 0 -34 0 -45
-62 -16 -90 -46 -191 -58 -195 -6 -2 -13 13 -17 34 -3 21 -19 79 -34 128 l-28
90 -39 3 c-30 3 -36 0 -32 -11z"/>
<path d="M2610 1015 c0 -2 7 -8 15 -15 12 -10 15 -10 15 2 0 8 -7 15 -15 15
-8 0 -15 -1 -15 -2z"/>
<path d="M1045 850 c-17 -6 -13 -9 20 -15 80 -15 114 -53 95 -110 -10 -32 -77
-102 -130 -136 -14 -9 -22 -20 -18 -24 19 -20 152 55 189 107 23 32 28 93 9
128 -26 48 -109 73 -165 50z"/>
<path d="M350 821 c-30 -10 -70 -26 -89 -35 -33 -17 -33 -18 -15 -36 54 -53
597 -51 699 2 46 24 12 31 -88 17 -51 -7 -183 -13 -295 -14 -169 0 -204 2
-212 15 -10 16 20 39 53 40 9 0 17 5 17 11 0 5 4 8 8 5 4 -2 14 -1 22 5 26 16
-40 9 -100 -10z"/>
<path d="M388 654 c-31 -16 -36 -45 -13 -64 8 -7 43 -18 78 -26 100 -21 439
-6 466 22 3 3 -5 14 -19 25 -18 14 -34 18 -60 14 -106 -16 -236 -23 -319 -16
-92 8 -117 19 -106 49 5 15 6 15 -27 -4z"/>
<path d="M420 482 c-26 -21 -19 -47 19 -67 36 -18 185 -38 236 -31 22 3 72 8
110 12 75 7 115 18 115 32 0 5 -17 17 -38 26 -33 15 -49 16 -127 6 -117 -15
-251 -4 -276 21 -17 17 -19 17 -39 1z"/>
<path d="M264 390 c-75 -15 -154 -57 -154 -81 0 -15 44 -38 80 -43 19 -3 69
-10 110 -16 93 -13 373 -18 495 -8 243 20 403 74 356 121 -8 8 -11 8 -11 -1 0
-81 -682 -120 -897 -51 -55 18 -38 47 32 56 32 5 73 34 45 32 -8 -1 -33 -5
-56 -9z"/>
<path d="M1202 287 c-18 -21 -114 -52 -232 -74 -76 -14 -148 -18 -362 -18
-146 0 -265 -1 -264 -2 1 -2 11 -4 22 -6 10 -1 26 -7 34 -12 8 -5 114 -11 236
-13 363 -7 598 44 582 124 -3 16 -4 16 -16 1z"/>
</g>
</svg>
