<?xml version="1.0" standalone="no"?>
<!DOCTYPE svg PUBLIC "-//W3C//DTD SVG 20010904//EN"
 "http://www.w3.org/TR/2001/REC-SVG-20010904/DTD/svg10.dtd">
<svg version="1.0" xmlns="http://www.w3.org/2000/svg"
 width="1349.000000pt" height="628.000000pt" viewBox="0 0 1349.000000 628.000000"
 preserveAspectRatio="xMidYMid meet">

<g transform="translate(0.000000,628.000000) scale(0.100000,-0.100000)"
fill="#000000" stroke="none">
<path d="M0 3410 l0 -2870 6745 0 6745 0 0 2870 0 2870 -6745 0 -6745 0 0
-2870z m5290 225 l0 -55 34 0 c19 0 38 -4 41 -10 4 -6 -10 -10 -34 -10 l-41 0
0 -60 c0 -47 -3 -60 -15 -60 -12 0 -15 20 -15 118 0 65 3 122 7 125 16 17 23
3 23 -48z m450 -45 l0 -100 40 0 c22 0 40 -4 40 -10 0 -5 -18 -10 -40 -10
l-40 0 0 -125 c0 -104 -2 -125 -15 -125 -13 0 -15 33 -15 235 0 202 2 235 15
235 12 0 15 -18 15 -100z m570 -75 l0 -175 -25 0 c-25 0 -25 1 -25 90 l0 90
-45 0 c-38 0 -45 3 -45 20 0 17 7 20 45 20 l45 0 0 65 c0 63 1 65 25 65 l25 0
0 -175z m1438 47 c2 -104 0 -122 -13 -122 -13 0 -15 20 -15 126 0 96 3 125 13
122 8 -3 13 -40 15 -126z m447 -107 c0 -174 -3 -229 -12 -232 -10 -4 -13 47
-13 232 0 185 3 236 13 233 9 -4 12 -59 12 -233z m-3325 -6 c0 -180 -3 -230
-12 -227 -9 3 -14 40 -16 126 l-3 122 -34 0 -35 0 0 -110 c0 -91 -3 -110 -15
-110 -13 0 -15 30 -15 210 0 180 2 210 15 210 12 0 15 -17 15 -90 l0 -90 35 0
35 0 0 95 c0 78 3 95 15 95 13 0 15 -32 15 -231z m2278 211 c74 -34 76 -101 4
-143 -35 -21 -130 -28 -193 -14 -44 9 -89 51 -89 82 0 32 36 73 73 84 57 17
158 12 205 -9z m1482 -75 l0 -95 40 0 c22 0 40 -4 40 -10 0 -5 -18 -10 -40
-10 l-39 0 -3 -122 c-2 -86 -7 -123 -15 -126 -10 -3 -13 47 -13 227 0 199 2
231 15 231 12 0 15 -17 15 -95z m-3650 45 l0 -40 80 0 80 0 0 40 c0 29 4 40
15 40 12 0 15 -18 15 -105 l0 -106 -107 3 -108 3 -3 89 c-2 49 -1 95 2 103 11
27 26 11 26 -27z m1780 20 c0 -18 -7 -20 -70 -20 -42 0 -70 -4 -70 -10 0 -23
51 -60 103 -75 41 -12 54 -20 50 -31 -11 -29 -95 -10 -154 37 l-37 28 -22 -24
c-43 -46 -155 -72 -155 -36 0 8 20 19 50 26 33 9 59 24 79 47 l30 33 -77 3
c-55 2 -77 7 -77 16 0 7 3 16 7 19 3 4 82 7 175 7 161 0 168 -1 168 -20z m822
-19 c28 -25 33 -36 33 -74 0 -54 -22 -82 -77 -99 -78 -23 -158 27 -158 99 0
26 8 43 34 69 30 30 40 34 85 34 42 0 56 -5 83 -29z m-1392 -1 c0 -17 -7 -20
-50 -20 -48 0 -50 -1 -50 -27 0 -39 34 -90 75 -114 21 -13 32 -26 28 -35 -10
-26 -46 -14 -89 31 l-43 44 -20 -33 c-11 -18 -36 -41 -56 -52 -32 -17 -36 -17
-51 -2 -15 15 -14 17 14 32 41 21 82 76 89 120 l5 35 -53 3 c-42 2 -55 7 -57
21 -3 15 8 17 127 17 124 0 131 -1 131 -20z m-545 0 c4 -6 -17 -10 -56 -10
l-62 0 5 -69 c6 -79 38 -146 88 -183 32 -24 38 -38 16 -38 -15 0 -106 96 -106
111 0 20 -17 7 -35 -27 -24 -45 -95 -108 -108 -95 -6 6 7 24 33 47 57 51 82
105 88 187 l5 67 -62 0 c-39 0 -60 4 -56 10 4 6 57 10 125 10 68 0 121 -4 125
-10z m2235 -126 l0 -137 93 6 c50 4 104 10 120 13 33 8 37 -11 5 -20 -13 -4
-74 -9 -135 -13 l-113 -6 0 147 c0 123 2 146 15 146 13 0 15 -22 15 -136z
m635 126 c4 -6 -30 -10 -94 -10 l-101 0 0 -130 0 -130 53 1 c28 0 79 4 112 8
33 5 64 6 69 3 21 -12 -31 -23 -143 -29 l-121 -6 0 145 c0 79 3 148 7 151 10
11 211 8 218 -3z m-5105 -185 c0 -178 -1 -185 -20 -185 -11 0 -20 5 -20 10 0
7 -6 7 -19 0 -41 -21 -91 -12 -127 24 -31 31 -34 40 -34 91 0 52 3 60 35 92
33 33 39 35 85 31 l50 -5 0 63 c0 62 1 64 25 64 l25 0 0 -185z m780 114 c0
-64 2 -70 18 -64 95 41 162 -5 162 -113 0 -48 -4 -58 -34 -88 -36 -36 -86 -45
-127 -24 -13 7 -19 7 -19 0 0 -5 -9 -10 -20 -10 -19 0 -20 7 -20 185 0 178 1
185 20 185 18 0 20 -7 20 -71z m490 33 c0 -46 -25 -116 -57 -163 -38 -54 -118
-115 -129 -97 -4 7 -2 14 6 16 25 9 91 76 116 117 13 23 27 63 30 88 l7 47
-77 0 c-44 0 -76 4 -76 10 0 6 37 10 90 10 l90 0 0 -28z m-2760 -17 c0 -12
-15 -15 -75 -15 l-75 0 0 -60 0 -59 67 -3 c42 -2 68 -8 71 -15 3 -10 -15 -13
-67 -13 l-71 0 0 -75 c0 -73 -1 -75 -25 -75 l-25 0 0 165 0 165 100 0 c82 0
100 -3 100 -15z m700 -25 l0 -40 40 0 c29 0 40 -4 40 -15 0 -11 -11 -15 -40
-15 l-41 0 3 -92 3 -93 40 -1 c28 0 40 -5 40 -15 0 -10 -14 -15 -46 -17 -70
-5 -79 9 -79 124 0 87 -1 94 -20 94 -11 0 -20 7 -20 15 0 8 9 15 20 15 17 0
20 7 20 40 0 33 3 40 20 40 17 0 20 -7 20 -40z m310 25 c0 -12 -15 -15 -75
-15 l-75 0 0 -55 0 -55 70 0 c56 0 70 -3 70 -15 0 -12 -14 -15 -70 -15 l-70 0
0 -65 0 -65 75 0 c60 0 75 -3 75 -15 0 -12 -18 -15 -100 -15 l-100 0 0 165 0
165 100 0 c82 0 100 -3 100 -15z m651 -110 c19 -69 36 -125 39 -125 3 0 21 56
40 125 31 110 37 125 56 125 19 0 26 -16 60 -131 21 -71 40 -126 42 -121 1 5
17 63 35 128 28 104 35 119 55 122 12 2 22 0 22 -3 0 -5 -55 -200 -86 -307 -3
-11 -15 -18 -29 -18 -20 0 -26 8 -39 53 -8 28 -25 88 -37 131 l-23 79 -36
-129 c-33 -120 -37 -129 -60 -129 -23 0 -27 10 -72 160 -26 88 -48 161 -48
163 0 1 11 2 24 2 21 0 26 -10 57 -125z m3029 25 l0 -30 95 0 c88 0 95 -1 95
-20 0 -19 -7 -20 -216 -20 -200 0 -215 1 -212 18 3 14 17 17 96 20 l92 3 0 29
c0 25 4 30 25 30 21 0 25 -5 25 -30z m-4650 4 c0 -14 2 -14 22 0 20 14 98 23
98 12 0 -22 -14 -32 -39 -28 -20 3 -36 -3 -50 -17 -18 -18 -21 -33 -21 -111 0
-89 0 -90 -25 -90 l-25 0 0 125 c0 118 1 125 20 125 11 0 20 -7 20 -16z m280
-1 c37 -21 50 -52 50 -114 0 -45 -4 -55 -34 -85 -29 -29 -41 -34 -81 -34 -40
0 -52 5 -82 35 -34 34 -35 37 -31 97 4 53 9 65 36 89 38 34 97 39 142 12z
m116 2 c5 -13 8 -13 27 0 31 22 93 19 117 -5 17 -17 20 -33 20 -125 0 -98 -1
-105 -20 -105 -19 0 -20 7 -20 94 0 123 -20 147 -90 111 l-30 -16 0 -94 c0
-88 -1 -95 -20 -95 -19 0 -20 7 -20 125 0 106 2 125 15 125 9 0 18 -7 21 -15z
m636 3 c4 -10 10 -10 32 0 41 19 87 15 113 -10 21 -20 23 -30 23 -125 0 -96
-1 -103 -20 -103 -19 0 -20 7 -20 94 0 123 -20 147 -90 111 l-30 -16 0 -94 c0
-88 -1 -95 -20 -95 -19 0 -20 7 -20 125 0 101 3 125 14 125 8 0 16 -6 18 -12z
m1099 -17 c21 -22 29 -39 29 -65 l0 -36 -85 0 c-83 0 -85 0 -85 -24 0 -15 11
-33 28 -46 22 -18 36 -21 74 -17 48 6 73 -7 47 -24 -23 -14 -108 -10 -140 7
-74 38 -77 171 -5 215 48 29 102 25 137 -10z m3159 -41 c0 -19 -7 -20 -95 -20
-95 0 -95 0 -95 -25 0 -24 2 -25 70 -25 l70 0 0 -75 c0 -73 -1 -75 -25 -75
-24 0 -25 3 -25 55 l0 55 -140 0 c-133 0 -140 1 -140 20 0 18 7 20 70 20 68 0
70 1 70 25 0 24 -2 24 -92 27 -79 3 -93 6 -96 21 -3 16 12 17 212 17 209 0
216 -1 216 -20z m-1960 -70 l0 -50 -130 0 -130 0 0 -35 0 -35 140 0 c87 0 140
-4 140 -10 0 -6 -59 -10 -156 -10 l-155 0 3 53 3 52 128 3 127 3 0 29 0 30
-130 0 c-80 0 -130 4 -130 10 0 6 55 10 145 10 l145 0 0 -50z m2190 10 l0 -30
120 0 120 0 0 30 c0 20 5 30 15 30 12 0 15 -17 15 -90 l0 -90 -150 0 -150 0 0
90 c0 73 3 90 15 90 10 0 15 -10 15 -30z m-1422 -57 l3 -53 130 0 c122 0 129
-1 129 -20 0 -19 -7 -20 -160 -20 l-160 0 0 68 c0 75 4 84 35 80 17 -3 20 -11
23 -55z m641 39 c46 -23 58 -44 46 -79 -15 -42 -66 -63 -155 -63 -125 1 -194
47 -160 110 18 33 67 49 155 50 57 0 90 -5 114 -18z"/>
<path d="M6953 3628 c-28 -13 -39 -44 -23 -63 29 -35 145 -44 200 -15 27 14
26 55 -2 74 -26 19 -140 21 -175 4z"/>
<path d="M4980 3525 l0 -45 80 0 80 0 0 45 0 45 -80 0 -80 0 0 -45z"/>
<path d="M7435 3615 c-37 -36 -34 -86 7 -120 26 -22 39 -26 66 -21 77 12 109
90 57 141 -34 35 -96 35 -130 0z"/>
<path d="M3272 3473 c-7 -3 -19 -18 -27 -33 -42 -82 18 -175 91 -141 22 10 24
16 24 85 0 64 -3 77 -19 86 -21 11 -47 12 -69 3z"/>
<path d="M4216 3459 c-23 -18 -26 -27 -26 -83 0 -58 2 -64 25 -74 39 -18 59
-15 86 14 34 36 35 117 0 145 -30 24 -52 24 -85 -2z"/>
<path d="M2131 3461 c-46 -46 -30 -153 25 -167 17 -4 37 -2 53 7 68 38 41 179
-34 179 -14 0 -34 -9 -44 -19z"/>
<path d="M3971 3454 c-12 -15 -21 -31 -21 -35 0 -5 30 -9 66 -9 63 0 65 1 59
23 -16 51 -71 63 -104 21z"/>
<path d="M7480 3290 l0 -40 120 0 120 0 0 40 0 40 -120 0 -120 0 0 -40z"/>
<path d="M6524 3343 c-12 -2 -30 -13 -40 -24 -16 -18 -16 -21 -2 -35 33 -33
148 -40 201 -12 30 16 17 51 -23 65 -34 12 -94 14 -136 6z"/>
<path d="M438 268 c-2 -35 -8 -71 -12 -80 -12 -26 20 -24 34 1 16 31 13 141
-4 141 -10 0 -15 -17 -18 -62z"/>
<path d="M490 265 l0 -65 45 0 c25 0 45 5 45 10 0 6 -13 10 -30 10 -23 0 -30
4 -30 20 0 15 7 20 25 20 14 0 25 5 25 10 0 6 -11 10 -25 10 -16 0 -25 6 -25
15 0 10 10 15 30 15 17 0 30 5 30 10 0 6 -20 10 -45 10 l-45 0 0 -65z"/>
<path d="M610 310 c-40 -40 -11 -110 45 -110 32 0 65 33 65 65 0 14 -9 34 -20
45 -11 11 -31 20 -45 20 -14 0 -34 -9 -45 -20z m65 -45 c0 -30 -4 -41 -17 -43
-26 -5 -44 39 -28 67 19 36 45 22 45 -24z"/>
<path d="M740 265 c0 -51 3 -65 15 -65 11 0 15 11 15 38 l0 37 22 -37 c13 -22
30 -38 40 -38 15 0 18 9 18 65 0 51 -3 65 -15 65 -11 0 -15 -12 -15 -42 l-1
-43 -25 43 c-38 62 -54 56 -54 -23z"/>
<path d="M920 267 c0 -35 -5 -68 -12 -75 -16 -16 -1 -29 20 -16 24 16 31 154
7 154 -12 0 -15 -13 -15 -63z"/>
<path d="M997 318 c-9 -7 -20 -27 -23 -44 -12 -61 62 -98 106 -54 55 55 -21
144 -83 98z m64 -32 c14 -29 -4 -69 -29 -64 -17 3 -28 47 -18 74 8 22 35 16
47 -10z"/>
<path d="M1120 265 c0 -51 3 -65 15 -65 11 0 15 11 15 37 l0 38 25 -38 c40
-57 55 -50 55 28 0 50 -3 65 -14 65 -10 0 -16 -13 -18 -37 l-3 -38 -22 38
c-35 59 -53 50 -53 -28z"/>
<path d="M1272 314 c-32 -22 -30 -78 2 -99 14 -9 37 -15 53 -13 23 2 29 8 31
36 3 29 1 32 -22 32 -14 0 -26 -4 -26 -10 0 -5 5 -10 10 -10 6 0 10 -7 10 -15
0 -18 -21 -20 -38 -3 -30 30 -2 86 38 75 13 -3 20 0 20 9 0 19 -50 18 -78 -2z"/>
<path d="M1424 303 c21 -86 28 -103 42 -103 15 0 17 4 30 55 l7 30 10 -42 c14
-61 41 -59 56 5 7 26 14 55 17 65 3 11 0 17 -9 17 -16 0 -27 -21 -27 -51 0
-10 -4 -19 -10 -19 -5 0 -10 10 -10 23 0 12 -4 28 -9 36 -13 20 -41 6 -41 -21
0 -45 -17 -51 -24 -9 -4 28 -11 41 -22 41 -13 0 -15 -6 -10 -27z"/>
<path d="M1617 312 c-22 -25 -21 -75 1 -95 40 -37 105 -7 105 48 0 56 -70 87
-106 47z m61 -14 c17 -17 15 -53 -3 -68 -32 -26 -63 38 -33 68 15 15 21 15 36
0z"/>
<path d="M1760 310 c-40 -40 -11 -110 45 -110 32 0 65 33 65 65 0 14 -9 34
-20 45 -11 11 -31 20 -45 20 -14 0 -34 -9 -45 -20z m65 -45 c0 -30 -4 -41 -17
-43 -26 -5 -44 39 -28 67 19 36 45 22 45 -24z"/>
<path d="M1890 265 c0 -51 3 -65 15 -65 10 0 15 10 15 28 l1 27 20 -27 c11
-16 29 -28 40 -28 19 0 18 2 -5 37 l-25 36 20 26 c18 23 19 26 5 29 -9 2 -25
-7 -36 -20 l-19 -23 -1 23 c0 13 -6 22 -15 22 -12 0 -15 -14 -15 -65z"/>
<path d="M2392 280 c0 -19 2 -27 5 -17 2 9 2 25 0 35 -3 9 -5 1 -5 -18z"/>
<path d="M2437 303 c-4 -3 -6 -22 -6 -42 l1 -36 8 40 c8 42 8 49 -3 38z"/>
<path d="M2495 300 c-3 -5 -1 -10 4 -10 6 0 11 5 11 10 0 6 -2 10 -4 10 -3 0
-8 -4 -11 -10z"/>
<path d="M2560 301 c0 -6 4 -13 10 -16 6 -3 7 1 4 9 -7 18 -14 21 -14 7z"/>
<path d="M2615 300 c-3 -5 -1 -10 4 -10 6 0 11 5 11 10 0 6 -2 10 -4 10 -3 0
-8 -4 -11 -10z"/>
<path d="M2695 300 c-3 -5 -1 -10 4 -10 6 0 11 5 11 10 0 6 -2 10 -4 10 -3 0
-8 -4 -11 -10z"/>
<path d="M2788 300 c12 -5 22 -14 22 -20 0 -5 -10 -11 -22 -11 -19 -1 -20 -2
-4 -6 26 -7 42 12 26 32 -7 8 -20 15 -29 14 -11 0 -9 -3 7 -9z"/>
<path d="M2853 289 c8 -14 17 -36 19 -50 3 -21 4 -20 9 8 3 17 2 31 -2 30 -4
-1 -15 7 -24 18 -16 19 -16 19 -2 -6z"/>
<path d="M3118 300 c12 -5 22 -14 22 -20 0 -5 -10 -11 -22 -11 -19 -1 -20 -2
-4 -6 26 -7 42 12 26 32 -7 8 -20 15 -29 14 -11 0 -9 -3 7 -9z"/>
<path d="M3198 300 c12 -5 22 -14 22 -20 0 -5 -10 -11 -22 -11 -19 -1 -20 -2
-4 -6 26 -7 42 12 26 32 -7 8 -20 15 -29 14 -11 0 -9 -3 7 -9z"/>
<path d="M3360 258 c-3 -31 -1 -53 3 -49 5 5 7 30 5 57 l-3 49 -5 -57z"/>
<path d="M3400 265 c0 -43 1 -45 28 -44 23 2 24 2 5 6 -27 5 -31 30 -5 36 16
4 16 5 0 6 -26 2 -22 29 5 34 19 4 18 4 -5 6 -27 1 -28 -1 -28 -44z"/>
<path d="M3559 301 c12 -8 51 -4 51 5 0 2 -15 4 -32 4 -23 0 -29 -3 -19 -9z"/>
<path d="M3860 306 c0 -9 39 -13 51 -5 10 6 4 9 -18 9 -18 0 -33 -2 -33 -4z"/>
<path d="M3960 300 c0 -5 5 -10 11 -10 5 0 7 5 4 10 -3 6 -8 10 -11 10 -2 0
-4 -4 -4 -10z"/>
<path d="M4113 265 c0 -27 2 -40 4 -27 5 23 12 27 29 15 5 -5 2 -1 -7 8 -9 8
-19 24 -22 35 -2 10 -5 -3 -4 -31z"/>
<path d="M4149 293 c-13 -16 -12 -17 4 -4 16 13 21 21 13 21 -2 0 -10 -8 -17
-17z"/>
<path d="M4440 265 c0 -36 3 -45 18 -44 10 0 12 3 5 6 -7 2 -13 20 -13 38 0
18 6 36 13 38 7 3 5 6 -5 6 -15 1 -18 -8 -18 -44z"/>
<path d="M4721 279 c-1 -44 21 -68 44 -49 9 7 14 27 14 49 l-2 36 -6 -40 c-4
-26 -11 -40 -21 -40 -10 0 -17 14 -21 40 l-6 40 -2 -36z"/>
<path d="M4820 294 c0 -8 5 -12 10 -9 6 4 8 11 5 16 -9 14 -15 11 -15 -7z"/>
<path d="M4877 296 c-4 -10 -3 -15 3 -11 6 4 11 -10 12 -32 1 -37 1 -37 5 -6
2 18 0 40 -5 49 -8 15 -10 15 -15 0z"/>
<path d="M4948 303 c6 -2 18 -2 25 0 6 3 1 5 -13 5 -14 0 -19 -2 -12 -5z"/>
<path d="M5012 263 c1 -37 2 -41 5 -15 3 19 9 30 15 26 6 -4 6 2 -1 15 -17 31
-21 26 -19 -26z"/>
<path d="M5107 302 c6 -4 13 -25 16 -47 l4 -40 1 42 c1 23 8 44 15 46 6 3 -1
6 -18 6 -17 0 -25 -3 -18 -7z"/>
<path d="M3267 293 c-9 -9 -9 -51 1 -56 4 -3 7 10 7 29 0 19 0 34 -1 34 0 0
-4 -3 -7 -7z"/>
<path d="M3315 265 c0 -18 3 -31 8 -28 4 2 7 15 7 28 0 13 -3 26 -7 28 -5 3
-8 -10 -8 -28z"/>
<path d="M4486 287 c3 -10 9 -15 12 -12 3 3 0 11 -7 18 -10 9 -11 8 -5 -6z"/>
<path d="M2252 279 c2 -6 14 -16 26 -20 29 -11 28 -5 -4 16 -17 11 -25 12 -22
4z"/>
<path d="M3792 279 c2 -6 14 -16 26 -20 29 -11 28 -5 -4 16 -17 11 -25 12 -22
4z"/>
<path d="M3471 269 c-1 -9 7 -23 17 -30 15 -12 16 -12 6 1 -6 8 -14 22 -17 30
-5 13 -6 12 -6 -1z"/>
<path d="M3981 268 c-1 -11 -9 -18 -23 -19 -18 -1 -17 -3 7 -8 37 -9 37 -9 26
20 -7 17 -10 19 -10 7z"/>
<path d="M4200 276 c0 -2 12 -11 26 -21 17 -11 25 -12 22 -4 -4 11 -48 34 -48
25z"/>
<path d="M4531 264 c0 -11 3 -14 6 -6 3 7 2 16 -1 19 -3 4 -6 -2 -5 -13z"/>
<path d="M4631 264 c0 -11 3 -14 6 -6 3 7 2 16 -1 19 -3 4 -6 -2 -5 -13z"/>
<path d="M2552 245 c0 -16 2 -22 5 -12 2 9 2 23 0 30 -3 6 -5 -1 -5 -18z"/>
<path d="M4948 263 c6 -2 18 -2 25 0 6 3 1 5 -13 5 -14 0 -19 -2 -12 -5z"/>
<path d="M4486 243 c-6 -14 -5 -15 5 -6 7 7 10 15 7 18 -3 3 -9 -2 -12 -12z"/>
<path d="M2465 240 c3 -5 8 -10 11 -10 2 0 4 5 4 10 0 6 -5 10 -11 10 -5 0 -7
-4 -4 -10z"/>
<path d="M2591 234 c0 -11 3 -14 6 -6 3 7 2 16 -1 19 -3 4 -6 -2 -5 -13z"/>
<path d="M2670 243 c0 -5 14 -8 30 -8 17 0 30 3 30 8 0 4 -13 7 -30 7 -16 0
-30 -3 -30 -7z"/>
<path d="M5055 240 c3 -5 8 -10 11 -10 2 0 4 5 4 10 0 6 -5 10 -11 10 -5 0 -7
-4 -4 -10z"/>
<path d="M4948 223 c6 -2 18 -2 25 0 6 3 1 5 -13 5 -14 0 -19 -2 -12 -5z"/>
</g>
</svg>
