<?xml version="1.0" standalone="no"?>
<!DOCTYPE svg PUBLIC "-//W3C//DTD SVG 20010904//EN"
 "http://www.w3.org/TR/2001/REC-SVG-20010904/DTD/svg10.dtd">
<svg version="1.0" xmlns="http://www.w3.org/2000/svg"
 width="413.000000pt" height="122.000000pt" viewBox="0 0 413.000000 122.000000"
 preserveAspectRatio="xMidYMid meet">

<g transform="translate(0.000000,122.000000) scale(0.100000,-0.100000)"
fill="#000000" stroke="none">
<path d="M2543 1188 l-23 -11 0 -354 0 -353 35 0 35 0 0 180 0 179 46 27 c51
30 112 36 139 14 37 -31 45 -73 45 -240 l0 -160 35 0 35 0 0 184 c0 174 -1
185 -23 217 -12 18 -34 39 -47 46 -41 21 -119 16 -177 -12 l-53 -24 0 159 c0
170 0 171 -47 148z"/>
<path d="M440 1174 c-70 -10 -130 -27 -130 -35 0 -6 -4 -8 -10 -4 -18 11 -38
-41 -39 -107 l-2 -68 115 0 c96 0 116 -3 116 -15 0 -13 -25 -15 -169 -15 -162
0 -229 -9 -217 -29 4 -5 3 -16 0 -25 -5 -13 -9 -14 -20 -5 -18 15 -45 -6 -37
-28 4 -11 2 -14 -5 -9 -8 5 -12 0 -12 -14 0 -19 1 -20 16 -6 8 9 20 16 25 16
5 0 0 -9 -11 -20 -11 -11 -20 -28 -21 -37 0 -15 -2 -15 -8 2 -13 31 -25 -65
-17 -133 14 -122 67 -182 159 -182 l47 0 0 60 c0 81 23 136 71 166 36 22 48
24 179 24 150 0 188 8 225 50 18 19 20 39 23 160 4 167 -7 202 -72 230 -40 17
-157 31 -206 24z m-17 -21 c-7 -2 -21 -2 -30 0 -10 3 -4 5 12 5 17 0 24 -2 18
-5z m-47 -30 c-7 -7 -26 7 -26 19 0 6 6 6 15 -2 9 -7 13 -15 11 -17z m-48 -3
c-7 -11 -18 -18 -25 -16 -8 3 -10 -7 -8 -36 4 -41 10 -53 26 -53 5 0 9 -3 9
-7 0 -5 -2 -8 -5 -8 -3 0 -10 0 -15 0 -10 0 -28 37 -35 73 -5 25 15 56 32 50
7 -3 13 0 13 6 0 6 5 11 10 11 6 0 5 -8 -2 -20z m60 -23 c8 -6 12 -27 10 -53
-2 -27 -7 -39 -12 -33 -6 5 -19 9 -31 9 -43 0 -60 47 -29 81 16 17 36 16 62
-4z m-233 -187 c-3 -5 -14 -10 -23 -10 -15 0 -15 2 -2 10 20 13 33 13 25 0z"/>
<path d="M4047 1084 c-4 -4 -6 -23 -6 -43 l2 -36 7 35 c4 19 8 29 9 21 0 -8 4
-12 7 -8 3 3 2 13 -3 22 -5 8 -12 12 -16 9z"/>
<path d="M4117 1048 c8 -59 13 -61 13 -5 0 26 -4 47 -9 47 -5 0 -7 -19 -4 -42z"/>
<path d="M2288 1068 c-27 -9 -28 -13 -28 -74 0 -62 -1 -64 -25 -64 -18 0 -25
-5 -25 -20 0 -15 7 -20 25 -20 l25 0 0 -160 c0 -116 4 -170 14 -195 19 -45 68
-70 129 -66 29 2 19 28 -15 37 -50 15 -60 58 -56 234 l4 145 42 3 c34 3 42 7
42 23 0 16 -7 19 -43 19 l-44 0 1 75 c1 79 0 80 -46 63z"/>
<path d="M4070 1035 c0 -5 4 -16 9 -23 6 -11 10 -10 15 4 3 9 4 19 1 22 -3 3
-5 -1 -5 -9 0 -11 -2 -11 -10 1 -5 8 -10 11 -10 5z"/>
<path d="M1359 926 c-20 -7 -52 -22 -70 -33 l-34 -19 -3 -307 -2 -308 32 -14
33 -13 3 135 c2 123 4 134 20 128 53 -23 90 -34 112 -35 74 -1 146 47 175 115
51 123 8 302 -85 350 -35 18 -132 19 -181 1z m127 -41 c51 -21 74 -77 74 -183
0 -133 -35 -187 -119 -186 -25 0 -63 7 -83 16 l-38 17 0 155 c0 173 -3 166 77
185 53 12 50 13 89 -4z"/>
<path d="M1768 928 l-28 -10 0 -183 0 -184 30 -34 c49 -56 150 -67 253 -28
l27 11 0 -58 c0 -31 -6 -68 -13 -82 -18 -36 -73 -69 -129 -76 -37 -5 -48 -10
-44 -21 4 -8 6 -19 6 -24 0 -22 131 13 178 48 65 48 67 58 70 366 l4 277 -36
0 -36 0 0 -190 0 -189 -30 -16 c-48 -25 -112 -30 -148 -11 -59 30 -62 43 -62
238 0 98 -3 178 -7 177 -5 0 -20 -5 -35 -11z"/>
<path d="M3094 926 c-84 -38 -129 -127 -122 -239 6 -90 35 -148 95 -191 37
-25 52 -30 105 -30 72 1 113 18 153 66 42 50 58 96 59 174 1 135 -75 225 -197
231 -38 2 -74 -2 -93 -11z m150 -57 c45 -35 60 -76 61 -164 0 -132 -43 -195
-133 -195 -79 0 -121 67 -122 193 0 88 15 134 55 165 37 29 103 30 139 1z"/>
<path d="M3587 929 c-21 -5 -58 -21 -83 -35 l-44 -26 0 -199 0 -199 35 0 35 0
0 195 0 194 28 14 c74 38 150 27 182 -26 18 -28 20 -51 20 -204 l0 -173 35 0
35 0 0 194 c0 177 -2 195 -20 218 -41 53 -125 70 -223 47z"/>
</g>
</svg>
