<?xml version="1.0" standalone="no"?>
<!DOCTYPE svg PUBLIC "-//W3C//DTD SVG 20010904//EN"
 "http://www.w3.org/TR/2001/REC-SVG-20010904/DTD/svg10.dtd">
<svg version="1.0" xmlns="http://www.w3.org/2000/svg"
 width="1366.000000pt" height="628.000000pt" viewBox="0 0 1366.000000 628.000000"
 preserveAspectRatio="xMidYMid meet">

<g transform="translate(0.000000,628.000000) scale(0.100000,-0.100000)"
fill="#000000" stroke="none">
<path d="M312 6048 c-25 -25 -13 -48 33 -68 49 -21 56 -34 25 -50 -22 -12 -55
0 -63 22 -2 7 -8 10 -12 6 -12 -11 25 -48 47 -48 30 0 58 19 58 39 0 23 -20
40 -56 50 -35 9 -41 26 -15 41 17 8 25 6 42 -11 26 -26 39 -16 14 11 -20 22
-55 26 -73 8z"/>
<path d="M960 5985 c0 -43 4 -75 10 -75 6 0 10 32 10 75 0 43 -4 75 -10 75 -6
0 -10 -32 -10 -75z"/>
<path d="M13048 6053 c34 -2 90 -2 125 0 34 2 6 3 -63 3 -69 0 -97 -1 -62 -3z"/>
<path d="M434 5995 c-14 -21 -15 -31 -6 -51 20 -41 67 -44 80 -3 3 9 -2 8 -16
-5 -18 -15 -24 -16 -37 -6 -24 20 -18 29 25 32 39 3 39 4 27 28 -18 35 -52 38
-73 5z m54 3 c19 -19 14 -28 -18 -28 -16 0 -30 4 -30 8 0 9 21 32 30 32 3 0
11 -5 18 -12z"/>
<path d="M541 5960 l1 -55 9 44 c15 78 49 82 49 5 0 -59 18 -57 22 4 2 34 7
47 18 47 11 0 16 -13 18 -47 2 -27 7 -48 13 -48 14 0 11 88 -3 97 -7 4 -39 8
-70 8 l-58 0 1 -55z"/>
<path d="M713 5965 c0 -33 2 -45 4 -27 2 18 2 45 0 60 -2 15 -4 0 -4 -33z"/>
<path d="M761 6006 c-17 -20 -10 -77 12 -90 19 -12 48 0 55 25 3 9 -2 8 -16
-5 -18 -15 -24 -16 -37 -6 -8 7 -15 23 -15 35 0 12 7 28 15 35 13 10 19 10 35
-5 21 -19 28 -7 8 13 -16 16 -43 15 -57 -2z"/>
<path d="M853 5994 c-15 -24 -15 -29 -2 -53 18 -32 45 -38 70 -15 24 22 24 56
1 77 -26 24 -49 21 -69 -9z m51 10 c22 -8 22 -70 0 -78 -35 -13 -60 44 -32 72
14 14 12 14 32 6z"/>
<path d="M1017 6002 c-22 -25 -21 -55 2 -76 25 -23 52 -17 70 15 13 24 13 29
-2 53 -20 30 -47 33 -70 8z m51 -4 c30 -30 -1 -94 -33 -68 -25 20 -13 80 15
80 3 0 11 -5 18 -12z"/>
<path d="M1122 5960 c1 -49 2 -50 5 -13 5 49 25 72 47 53 8 -6 17 -30 19 -53
l4 -42 1 46 c2 53 -10 68 -50 66 -27 -2 -28 -4 -26 -57z"/>
<path d="M12990 5980 c0 -6 47 -10 120 -10 73 0 120 4 120 10 0 6 -47 10 -120
10 -73 0 -120 -4 -120 -10z"/>
<path d="M13048 5903 c34 -2 90 -2 125 0 34 2 6 3 -63 3 -69 0 -97 -1 -62 -3z"/>
<path d="M7944 5455 c-4 -9 -19 -15 -39 -15 -38 0 -55 -17 -34 -34 8 -6 14
-17 15 -23 1 -7 2 -20 3 -28 0 -9 12 -21 26 -27 34 -15 31 -26 -7 -30 -25 -2
-33 -8 -33 -23 0 -18 8 -20 91 -23 77 -2 93 0 98 14 9 24 -2 34 -40 34 -41 0
-42 6 -9 32 14 11 25 29 25 42 0 12 5 27 11 33 18 18 1 33 -37 33 -24 0 -34 5
-34 15 0 8 -7 15 -15 15 -9 0 -18 -7 -21 -15z m54 -77 c2 -12 -5 -19 -23 -24
-31 -8 -50 7 -41 31 8 22 60 16 64 -7z"/>
<path d="M7460 5447 c-31 -11 -35 -16 -35 -47 0 -31 4 -36 35 -47 39 -13 120
-16 169 -7 41 9 67 45 52 73 -21 38 -146 54 -221 28z m165 -47 c0 -12 -15 -16
-65 -18 -71 -2 -107 10 -80 28 8 6 44 9 80 8 50 -2 65 -6 65 -18z"/>
<path d="M8610 5445 c0 -10 -10 -15 -34 -15 -39 0 -57 -17 -34 -34 10 -8 13
-23 10 -49 -6 -54 26 -87 84 -87 34 0 47 5 63 26 22 28 27 60 12 83 -7 10 -5
19 6 26 23 17 7 35 -32 35 -20 0 -35 6 -39 15 -3 8 -12 15 -21 15 -8 0 -15 -7
-15 -15z m55 -110 c0 -26 -3 -30 -29 -30 -36 0 -56 26 -36 50 8 9 24 15 39 13
22 -2 26 -8 26 -33z"/>
<path d="M6871 5437 c-12 -12 -15 -144 -5 -171 3 -9 12 -16 19 -16 20 0 25 24
25 110 0 57 -4 79 -14 83 -7 3 -19 0 -25 -6z"/>
<path d="M7330 5416 c0 -28 -4 -35 -22 -38 -13 -2 -23 -10 -23 -18 0 -8 10
-16 23 -18 19 -3 22 -10 22 -43 0 -33 3 -40 18 -37 15 3 17 15 17 93 0 78 -2
90 -17 93 -14 3 -18 -4 -18 -32z"/>
<path d="M8104 5437 c-3 -8 -4 -51 -2 -97 3 -88 18 -113 39 -66 7 14 20 28 31
31 24 8 23 36 -2 42 -13 4 -21 17 -26 42 -3 20 -7 42 -9 49 -6 16 -24 15 -31
-1z"/>
<path d="M8240 5422 c-61 -61 -26 -152 58 -152 59 0 92 30 92 85 0 57 -23 85
-77 92 -37 5 -46 2 -73 -25z m94 -38 c33 -32 13 -74 -36 -74 -21 0 -32 7 -40
26 -11 23 -10 29 11 45 28 23 45 24 65 3z"/>
<path d="M8460 5431 c0 -12 -8 -21 -22 -23 -29 -4 -35 -28 -9 -35 27 -7 27
-19 1 -26 -25 -6 -26 -35 -2 -44 9 -4 25 -16 34 -28 27 -32 39 -3 36 90 -3 67
-6 80 -20 83 -12 2 -18 -3 -18 -17z"/>
<path d="M9117 5443 c-4 -3 -7 -73 -7 -155 0 -127 2 -150 16 -155 9 -3 20 0
25 8 10 16 12 268 3 293 -6 16 -26 21 -37 9z"/>
<path d="M5875 5416 c-40 -41 -46 -187 -9 -243 10 -17 24 -23 49 -23 40 0 60
23 70 83 12 61 35 48 35 -20 0 -67 12 -95 32 -75 8 8 14 51 16 122 5 134 -2
183 -26 178 -13 -2 -18 -16 -20 -61 -4 -70 -25 -77 -41 -13 -19 77 -61 97
-106 52z m60 -126 c0 -78 -2 -85 -20 -85 -18 0 -20 8 -23 65 -4 82 3 112 26
108 14 -3 17 -16 17 -88z"/>
<path d="M6090 5291 c0 -148 7 -178 33 -152 14 14 22 171 12 246 -5 45 -10 55
-26 55 -18 0 -19 -9 -19 -149z"/>
<path d="M6395 5433 c-36 -9 -65 -44 -65 -80 0 -50 15 -71 60 -84 34 -10 40
-16 40 -40 0 -27 -2 -28 -57 -31 -50 -3 -58 -6 -58 -23 0 -19 7 -20 145 -20
138 0 145 1 145 20 0 18 -8 20 -67 23 -68 3 -68 3 -68 32 0 22 5 30 18 30 32
0 80 37 86 68 18 81 -69 132 -179 105z m119 -59 c47 -47 -32 -93 -108 -64 -28
10 -35 47 -14 68 18 18 103 15 122 -4z"/>
<path d="M6700 5416 c0 -13 -16 -44 -35 -69 -58 -76 -36 -110 28 -41 l33 36
27 -36 c27 -35 50 -45 61 -28 3 5 -10 33 -29 63 -19 30 -35 64 -35 77 0 17 -6
22 -25 22 -20 0 -25 -5 -25 -24z"/>
<path d="M7084 5425 c-10 -25 6 -35 61 -35 58 0 65 -7 65 -65 0 -37 15 -54 32
-37 16 16 13 133 -3 143 -8 5 -45 9 -82 9 -50 0 -69 -4 -73 -15z"/>
<path d="M8774 5427 c-3 -8 -4 -45 -2 -83 3 -61 5 -69 23 -69 14 0 21 8 23 28
2 19 9 27 23 27 12 0 19 7 19 20 0 13 -7 20 -19 20 -15 0 -21 8 -23 32 -3 35
-33 52 -44 25z"/>
<path d="M8904 5429 c-10 -17 -7 -250 4 -261 5 -5 44 -8 88 -6 71 3 79 5 79
23 0 18 -8 20 -62 23 l-63 3 0 99 c0 54 -3 105 -6 114 -7 19 -30 21 -40 5z"/>
<path d="M9420 5286 c0 -153 6 -184 33 -157 6 6 13 40 15 76 4 54 7 65 22 65
10 0 20 6 23 14 6 15 -11 36 -28 36 -7 0 -16 26 -21 57 -7 43 -14 59 -26 61
-17 3 -18 -9 -18 -152z"/>
<path d="M4133 5420 c-37 -15 -57 -56 -47 -93 10 -32 35 -46 116 -62 31 -6 46
-39 28 -60 -18 -22 -70 -18 -96 6 -24 22 -54 20 -54 -4 0 -24 47 -59 87 -63
75 -10 135 46 119 109 -7 30 -51 57 -94 57 -15 0 -37 6 -48 14 -48 36 41 75
93 41 31 -21 50 -7 34 23 -18 34 -90 51 -138 32z"/>
<path d="M9223 5423 c-19 -7 -18 -246 1 -262 9 -7 42 -11 88 -9 65 3 73 5 73
23 0 17 -8 21 -60 25 l-60 5 0 85 0 85 55 3 c62 4 79 14 60 37 -9 11 -30 15
-79 14 -36 0 -72 -3 -78 -6z"/>
<path d="M4786 5411 c-7 -10 3 -41 13 -41 3 0 12 4 20 9 12 8 12 12 2 25 -15
18 -27 20 -35 7z"/>
<path d="M4910 5392 c-47 -48 -60 -143 -28 -204 12 -24 61 -48 98 -48 61 0
115 45 85 70 -11 9 -19 8 -37 -4 -53 -37 -108 -4 -108 65 0 83 53 126 101 83
19 -17 49 -13 49 6 0 6 -11 22 -25 35 -36 36 -97 35 -135 -3z"/>
<path d="M5340 5286 c0 -136 6 -160 35 -136 12 10 15 39 15 125 0 127 -4 145
-31 145 -18 0 -19 -9 -19 -134z"/>
<path d="M4787 5333 c-12 -11 -8 -181 4 -189 20 -12 33 16 37 79 5 81 -16 136
-41 110z"/>
<path d="M5657 5333 c-4 -3 -7 -48 -7 -100 0 -86 1 -93 20 -93 18 0 20 7 20
59 0 62 14 86 47 79 13 -2 19 -14 21 -43 4 -61 11 -85 26 -85 17 0 26 22 26
60 0 87 -37 133 -90 113 -23 -9 -30 -8 -34 3 -6 15 -19 18 -29 7z"/>
<path d="M4355 5305 c-31 -30 -35 -101 -7 -134 32 -39 142 -36 142 4 0 14 -8
15 -45 9 -30 -4 -50 -2 -60 6 -26 22 -17 29 43 32 56 3 57 4 60 34 6 65 -85
98 -133 49z m93 -32 c2 -9 -9 -13 -38 -13 -37 0 -41 2 -30 16 15 17 61 15 68
-3z"/>
<path d="M4537 5323 c-4 -3 -7 -43 -7 -89 0 -63 3 -83 15 -88 21 -8 35 24 35
78 0 39 3 46 20 46 17 0 20 -7 20 -52 0 -29 4 -59 9 -67 17 -26 31 1 31 60 0
52 2 59 20 59 16 0 19 -8 22 -62 2 -48 7 -63 18 -63 12 0 16 16 18 69 4 90 -8
105 -86 104 -32 -1 -62 -5 -68 -10 -7 -5 -14 -3 -18 7 -6 16 -18 19 -29 8z"/>
<path d="M5143 5306 c-23 -20 -28 -32 -28 -69 0 -54 23 -84 72 -93 45 -8 78 7
98 47 49 94 -62 183 -142 115z m97 -42 c10 -11 11 -23 4 -42 -17 -48 -84 -38
-84 12 0 43 53 63 80 30z"/>
<path d="M5467 5319 c-11 -6 -25 -27 -33 -46 -39 -93 67 -174 143 -109 38 33
40 102 4 140 -26 28 -80 35 -114 15z m83 -55 c10 -11 11 -23 4 -42 -17 -48
-84 -38 -84 12 0 43 53 63 80 30z"/>
<path d="M7405 5309 c-15 -24 17 -29 151 -27 116 3 139 6 139 18 0 12 -24 15
-142 18 -96 2 -144 -1 -148 -9z"/>
<path d="M7187 5213 c-62 -44 -79 -71 -51 -80 6 -2 34 12 62 32 l52 35 54 -35
c61 -39 71 -42 79 -21 4 9 -7 24 -26 38 -18 13 -48 36 -68 51 l-36 27 -66 -47z"/>
<path d="M6662 5193 l3 -58 120 0 c113 0 120 1 120 20 0 19 -8 20 -102 23
l-102 3 -3 32 c-2 21 -9 33 -21 35 -16 3 -18 -3 -15 -55z"/>
<path d="M7420 5230 c0 -19 7 -20 113 -22 l112 -2 -110 -5 -110 -6 0 -35 0
-35 125 0 c104 0 125 2 125 15 0 12 -21 16 -110 20 l-110 6 110 4 110 5 3 29
c2 16 -2 32 -10 37 -7 5 -66 9 -130 9 -111 0 -118 -1 -118 -20z"/>
<path d="M8300 5243 c-46 -15 -60 -28 -60 -54 0 -36 26 -50 104 -56 76 -6 142
10 151 37 11 35 -4 59 -43 70 -38 10 -125 12 -152 3z m145 -53 c0 -12 -15 -16
-65 -18 -67 -2 -98 7 -85 27 4 8 32 11 78 9 56 -2 72 -6 72 -18z"/>
<path d="M8566 5234 c-9 -24 -7 -73 4 -95 10 -17 22 -19 118 -19 71 0 112 4
120 12 7 7 12 36 12 65 0 41 -3 53 -15 53 -9 0 -18 -7 -21 -15 -5 -12 -25 -15
-89 -15 -64 0 -84 3 -89 15 -7 20 -32 19 -40 -1z m214 -64 c0 -6 -35 -10 -85
-10 -50 0 -85 4 -85 10 0 6 35 10 85 10 50 0 85 -4 85 -10z"/>
<path d="M7894 5206 c-3 -8 -4 -27 -2 -43 l3 -28 125 0 c118 0 125 1 125 20 0
18 -8 20 -101 23 -92 2 -102 5 -107 22 -6 23 -35 27 -43 6z"/>
<path d="M9543 5154 c-8 -21 13 -42 28 -27 13 13 5 43 -11 43 -6 0 -13 -7 -17
-16z"/>
<path d="M0 1275 l0 -735 6745 0 6745 0 0 460 0 460 85 0 85 0 0 275 0 275
-6830 0 -6830 0 0 -735z m262 588 c38 -34 11 -103 -40 -103 -54 0 -81 62 -45
102 20 22 61 23 85 1z m157 8 c8 -5 10 -14 6 -21 -6 -10 -10 -9 -17 4 -24 43
-71 -12 -50 -59 13 -28 39 -33 48 -10 4 8 11 15 18 15 6 0 16 10 21 23 13 28
54 35 72 11 12 -17 13 -17 13 0 0 14 7 17 38 14 36 -3 37 -4 37 -43 0 -34 -3
-40 -22 -43 -13 -2 -23 -10 -23 -18 0 -8 -7 -14 -15 -14 -11 0 -15 11 -16 38
0 32 -1 34 -9 15 -11 -27 -51 -31 -70 -8 -11 13 -14 13 -27 0 -35 -35 -93 -7
-93 45 0 48 49 76 89 51z m379 -19 c2 -13 -1 -29 -7 -36 -7 -9 -6 -19 5 -34
13 -19 13 -22 1 -22 -8 0 -22 11 -31 25 -9 14 -21 25 -26 25 -6 0 -10 -11 -10
-25 0 -16 -6 -25 -15 -25 -11 0 -15 12 -16 43 l-1 42 -16 -45 c-22 -59 -30
-70 -50 -70 -14 0 -14 2 -3 9 13 9 12 27 -5 89 -9 32 12 28 24 -5 l10 -28 7
28 c4 15 13 27 21 27 8 0 14 7 14 16 0 12 10 14 48 12 40 -3 47 -6 50 -26z
m162 13 c0 -9 9 -15 24 -15 26 0 36 -16 36 -61 0 -19 -5 -29 -15 -29 -11 0
-15 11 -15 40 0 40 -13 53 -24 24 -3 -9 -6 -27 -6 -40 0 -13 -4 -24 -10 -24
-6 0 -10 27 -10 60 0 33 4 60 10 60 6 0 10 -7 10 -15z m101 3 c5 -98 4 -108
-11 -106 -18 4 -30 74 -18 101 10 20 28 23 29 5z m144 1 c10 -16 -4 -24 -17
-11 -17 17 -38 15 -38 -3 0 -8 15 -21 33 -29 29 -12 33 -12 46 5 18 25 57 24
71 0 15 -28 13 -31 -20 -31 -30 0 -40 -13 -19 -26 6 -3 15 0 20 7 4 7 11 10
14 7 12 -12 -5 -28 -29 -28 -12 0 -27 5 -34 12 -9 9 -15 9 -24 0 -14 -14 -57
-16 -78 -2 -8 5 -11 12 -7 16 4 4 13 2 19 -4 19 -19 48 -14 48 8 0 11 -6 20
-14 20 -8 0 -24 8 -37 19 -20 16 -21 21 -10 35 15 18 66 22 76 5z m374 -2 c17
-21 0 -29 -21 -11 -23 22 -48 3 -48 -36 0 -15 7 -33 15 -40 13 -10 19 -9 35 5
23 21 39 13 20 -10 -16 -20 -64 -19 -80 1 -8 8 -13 28 -13 44 0 16 5 36 13 44
15 20 64 21 79 3z m131 -47 c0 -33 -4 -60 -10 -60 -6 0 -10 27 -10 60 0 33 4
60 10 60 6 0 10 -27 10 -60z m-870 -15 c0 -25 -4 -45 -10 -45 -5 0 -10 20 -10
45 0 25 5 45 10 45 6 0 10 -20 10 -45z m90 -3 c0 -26 -5 -53 -12 -60 -15 -15
-55 -16 -64 -1 -5 8 1 10 19 5 14 -3 29 -2 32 4 3 5 -2 10 -12 10 -25 0 -43
19 -43 45 0 29 19 45 52 45 27 0 28 -2 28 -48z m508 1 c2 -34 0 -43 -12 -43
-12 0 -16 11 -16 41 0 24 -4 38 -10 34 -5 -3 -10 -22 -10 -41 0 -19 -4 -34
-10 -34 -5 0 -10 11 -10 24 0 33 -10 57 -21 50 -5 -3 -9 -21 -9 -40 0 -19 -4
-34 -10 -34 -5 0 -10 20 -10 45 l0 45 58 -2 57 -3 3 -42z m32 2 c0 -25 -4 -45
-10 -45 -5 0 -10 20 -10 45 0 25 5 45 10 45 6 0 10 -20 10 -45z m198 33 c17
-17 15 -53 -3 -68 -8 -7 -25 -10 -40 -6 -21 5 -25 12 -25 40 0 19 6 37 13 39
22 9 43 7 55 -5z m132 -7 c15 -30 -4 -71 -33 -71 -29 0 -47 17 -47 45 0 44 60
63 80 26z m88 -28 c2 -24 -1 -43 -7 -43 -5 0 -11 17 -13 38 -2 20 -7 37 -13
37 -5 0 -11 -17 -13 -37 -5 -54 -22 -47 -22 8 0 45 0 45 33 42 30 -3 32 -6 35
-45z"/>
<path d="M189 1853 c-11 -15 -11 -16 1 -5 17 15 46 16 55 2 4 -6 -4 -9 -17 -7
-17 1 -23 -3 -23 -18 0 -15 6 -19 23 -18 13 2 21 -1 17 -7 -9 -14 -38 -13 -54
3 -11 10 -13 9 -9 -2 14 -46 70 -36 76 13 6 50 -41 76 -69 39z"/>
<path d="M466 1822 c-8 -24 3 -54 18 -49 15 5 14 59 -1 64 -6 2 -14 -5 -17
-15z"/>
<path d="M564 1827 c-7 -20 -2 -47 11 -50 14 -3 19 43 6 56 -7 7 -12 6 -17 -6z"/>
<path d="M730 1845 c0 -22 4 -26 23 -23 14 2 22 10 22 23 0 13 -8 21 -22 23
-19 3 -23 -1 -23 -23z"/>
<path d="M1256 1833 c-11 -11 -6 -23 9 -23 8 0 15 4 15 9 0 13 -16 22 -24 14z"/>
<path d="M874 1826 c-8 -21 -1 -49 13 -53 6 -2 14 5 17 15 12 36 -17 72 -30
38z"/>
<path d="M1624 1826 c-9 -23 0 -51 16 -51 10 0 15 10 15 29 0 32 -21 47 -31
22z"/>
<path d="M1746 1822 c-8 -24 3 -54 18 -49 15 5 14 59 -1 64 -6 2 -14 -5 -17
-15z"/>
<path d="M438 268 c-2 -35 -8 -71 -12 -80 -12 -26 20 -24 34 1 16 31 13 141
-4 141 -10 0 -15 -17 -18 -62z"/>
<path d="M490 265 l0 -65 45 0 c25 0 45 5 45 10 0 6 -13 10 -30 10 -23 0 -30
4 -30 20 0 15 7 20 25 20 14 0 25 5 25 10 0 6 -11 10 -25 10 -16 0 -25 6 -25
15 0 10 10 15 30 15 17 0 30 5 30 10 0 6 -20 10 -45 10 l-45 0 0 -65z"/>
<path d="M610 310 c-40 -40 -11 -110 45 -110 32 0 65 33 65 65 0 14 -9 34 -20
45 -11 11 -31 20 -45 20 -14 0 -34 -9 -45 -20z m65 -45 c0 -30 -4 -41 -17 -43
-26 -5 -44 39 -28 67 19 36 45 22 45 -24z"/>
<path d="M740 265 c0 -51 3 -65 15 -65 11 0 15 11 15 38 l0 37 22 -37 c13 -22
30 -38 40 -38 15 0 18 9 18 65 0 51 -3 65 -15 65 -11 0 -15 -12 -15 -42 l-1
-43 -25 43 c-38 62 -54 56 -54 -23z"/>
<path d="M920 267 c0 -35 -5 -68 -12 -75 -16 -16 -1 -29 20 -16 24 16 31 154
7 154 -12 0 -15 -13 -15 -63z"/>
<path d="M997 318 c-9 -7 -20 -27 -23 -44 -12 -61 62 -98 106 -54 55 55 -21
144 -83 98z m64 -32 c14 -29 -4 -69 -29 -64 -17 3 -28 47 -18 74 8 22 35 16
47 -10z"/>
<path d="M1120 265 c0 -51 3 -65 15 -65 11 0 15 11 15 37 l0 38 25 -38 c40
-57 55 -50 55 28 0 50 -3 65 -14 65 -10 0 -16 -13 -18 -37 l-3 -38 -22 38
c-35 59 -53 50 -53 -28z"/>
<path d="M1272 314 c-32 -22 -30 -78 2 -99 14 -9 37 -15 53 -13 23 2 29 8 31
36 3 29 1 32 -22 32 -14 0 -26 -4 -26 -10 0 -5 5 -10 10 -10 6 0 10 -7 10 -15
0 -18 -21 -20 -38 -3 -30 30 -2 86 38 75 13 -3 20 0 20 9 0 19 -50 18 -78 -2z"/>
<path d="M1424 303 c21 -86 28 -103 42 -103 15 0 17 4 30 55 l7 30 10 -42 c14
-61 41 -59 56 5 7 26 14 55 17 65 3 11 0 17 -9 17 -16 0 -27 -21 -27 -51 0
-10 -4 -19 -10 -19 -5 0 -10 10 -10 23 0 12 -4 28 -9 36 -13 20 -41 6 -41 -21
0 -45 -17 -51 -24 -9 -4 28 -11 41 -22 41 -13 0 -15 -6 -10 -27z"/>
<path d="M1617 312 c-22 -25 -21 -75 1 -95 40 -37 105 -7 105 48 0 56 -70 87
-106 47z m61 -14 c17 -17 15 -53 -3 -68 -32 -26 -63 38 -33 68 15 15 21 15 36
0z"/>
<path d="M1760 310 c-40 -40 -11 -110 45 -110 32 0 65 33 65 65 0 14 -9 34
-20 45 -11 11 -31 20 -45 20 -14 0 -34 -9 -45 -20z m65 -45 c0 -30 -4 -41 -17
-43 -26 -5 -44 39 -28 67 19 36 45 22 45 -24z"/>
<path d="M1890 265 c0 -51 3 -65 15 -65 10 0 15 10 15 28 l1 27 20 -27 c11
-16 29 -28 40 -28 19 0 18 2 -5 37 l-25 36 20 26 c18 23 19 26 5 29 -9 2 -25
-7 -36 -20 l-19 -23 -1 23 c0 13 -6 22 -15 22 -12 0 -15 -14 -15 -65z"/>
<path d="M2392 280 c0 -19 2 -27 5 -17 2 9 2 25 0 35 -3 9 -5 1 -5 -18z"/>
<path d="M2437 303 c-4 -3 -6 -22 -6 -42 l1 -36 8 40 c8 42 8 49 -3 38z"/>
<path d="M2495 300 c-3 -5 -1 -10 4 -10 6 0 11 5 11 10 0 6 -2 10 -4 10 -3 0
-8 -4 -11 -10z"/>
<path d="M2560 301 c0 -6 4 -13 10 -16 6 -3 7 1 4 9 -7 18 -14 21 -14 7z"/>
<path d="M2615 300 c-3 -5 -1 -10 4 -10 6 0 11 5 11 10 0 6 -2 10 -4 10 -3 0
-8 -4 -11 -10z"/>
<path d="M2695 300 c-3 -5 -1 -10 4 -10 6 0 11 5 11 10 0 6 -2 10 -4 10 -3 0
-8 -4 -11 -10z"/>
<path d="M2788 300 c12 -5 22 -14 22 -20 0 -5 -10 -11 -22 -11 -19 -1 -20 -2
-4 -6 26 -7 42 12 26 32 -7 8 -20 15 -29 14 -11 0 -9 -3 7 -9z"/>
<path d="M2853 289 c8 -14 17 -36 19 -50 3 -21 4 -20 9 8 3 17 2 31 -2 30 -4
-1 -15 7 -24 18 -16 19 -16 19 -2 -6z"/>
<path d="M3118 300 c12 -5 22 -14 22 -20 0 -5 -10 -11 -22 -11 -19 -1 -20 -2
-4 -6 26 -7 42 12 26 32 -7 8 -20 15 -29 14 -11 0 -9 -3 7 -9z"/>
<path d="M3198 300 c12 -5 22 -14 22 -20 0 -5 -10 -11 -22 -11 -19 -1 -20 -2
-4 -6 26 -7 42 12 26 32 -7 8 -20 15 -29 14 -11 0 -9 -3 7 -9z"/>
<path d="M3360 258 c-3 -31 -1 -53 3 -49 5 5 7 30 5 57 l-3 49 -5 -57z"/>
<path d="M3400 265 c0 -43 1 -45 28 -44 23 2 24 2 5 6 -27 5 -31 30 -5 36 16
4 16 5 0 6 -26 2 -22 29 5 34 19 4 18 4 -5 6 -27 1 -28 -1 -28 -44z"/>
<path d="M3559 301 c12 -8 51 -4 51 5 0 2 -15 4 -32 4 -23 0 -29 -3 -19 -9z"/>
<path d="M3860 306 c0 -9 39 -13 51 -5 10 6 4 9 -18 9 -18 0 -33 -2 -33 -4z"/>
<path d="M3960 300 c0 -5 5 -10 11 -10 5 0 7 5 4 10 -3 6 -8 10 -11 10 -2 0
-4 -4 -4 -10z"/>
<path d="M4113 265 c0 -27 2 -40 4 -27 5 23 12 27 29 15 5 -5 2 -1 -7 8 -9 8
-19 24 -22 35 -2 10 -5 -3 -4 -31z"/>
<path d="M4149 293 c-13 -16 -12 -17 4 -4 16 13 21 21 13 21 -2 0 -10 -8 -17
-17z"/>
<path d="M4440 265 c0 -36 3 -45 18 -44 10 0 12 3 5 6 -7 2 -13 20 -13 38 0
18 6 36 13 38 7 3 5 6 -5 6 -15 1 -18 -8 -18 -44z"/>
<path d="M4721 279 c-1 -44 21 -68 44 -49 9 7 14 27 14 49 l-2 36 -6 -40 c-4
-26 -11 -40 -21 -40 -10 0 -17 14 -21 40 l-6 40 -2 -36z"/>
<path d="M4820 294 c0 -8 5 -12 10 -9 6 4 8 11 5 16 -9 14 -15 11 -15 -7z"/>
<path d="M4877 296 c-4 -10 -3 -15 3 -11 6 4 11 -10 12 -32 1 -37 1 -37 5 -6
2 18 0 40 -5 49 -8 15 -10 15 -15 0z"/>
<path d="M4948 303 c6 -2 18 -2 25 0 6 3 1 5 -13 5 -14 0 -19 -2 -12 -5z"/>
<path d="M5012 263 c1 -37 2 -41 5 -15 3 19 9 30 15 26 6 -4 6 2 -1 15 -17 31
-21 26 -19 -26z"/>
<path d="M5107 302 c6 -4 13 -25 16 -47 l4 -40 1 42 c1 23 8 44 15 46 6 3 -1
6 -18 6 -17 0 -25 -3 -18 -7z"/>
<path d="M3267 293 c-9 -9 -9 -51 1 -56 4 -3 7 10 7 29 0 19 0 34 -1 34 0 0
-4 -3 -7 -7z"/>
<path d="M3315 265 c0 -18 3 -31 8 -28 4 2 7 15 7 28 0 13 -3 26 -7 28 -5 3
-8 -10 -8 -28z"/>
<path d="M4486 287 c3 -10 9 -15 12 -12 3 3 0 11 -7 18 -10 9 -11 8 -5 -6z"/>
<path d="M2252 279 c2 -6 14 -16 26 -20 29 -11 28 -5 -4 16 -17 11 -25 12 -22
4z"/>
<path d="M3792 279 c2 -6 14 -16 26 -20 29 -11 28 -5 -4 16 -17 11 -25 12 -22
4z"/>
<path d="M3471 269 c-1 -9 7 -23 17 -30 15 -12 16 -12 6 1 -6 8 -14 22 -17 30
-5 13 -6 12 -6 -1z"/>
<path d="M3981 268 c-1 -11 -9 -18 -23 -19 -18 -1 -17 -3 7 -8 37 -9 37 -9 26
20 -7 17 -10 19 -10 7z"/>
<path d="M4200 276 c0 -2 12 -11 26 -21 17 -11 25 -12 22 -4 -4 11 -48 34 -48
25z"/>
<path d="M4531 264 c0 -11 3 -14 6 -6 3 7 2 16 -1 19 -3 4 -6 -2 -5 -13z"/>
<path d="M4631 264 c0 -11 3 -14 6 -6 3 7 2 16 -1 19 -3 4 -6 -2 -5 -13z"/>
<path d="M2552 245 c0 -16 2 -22 5 -12 2 9 2 23 0 30 -3 6 -5 -1 -5 -18z"/>
<path d="M4948 263 c6 -2 18 -2 25 0 6 3 1 5 -13 5 -14 0 -19 -2 -12 -5z"/>
<path d="M4486 243 c-6 -14 -5 -15 5 -6 7 7 10 15 7 18 -3 3 -9 -2 -12 -12z"/>
<path d="M2465 240 c3 -5 8 -10 11 -10 2 0 4 5 4 10 0 6 -5 10 -11 10 -5 0 -7
-4 -4 -10z"/>
<path d="M2591 234 c0 -11 3 -14 6 -6 3 7 2 16 -1 19 -3 4 -6 -2 -5 -13z"/>
<path d="M2670 243 c0 -5 14 -8 30 -8 17 0 30 3 30 8 0 4 -13 7 -30 7 -16 0
-30 -3 -30 -7z"/>
<path d="M5055 240 c3 -5 8 -10 11 -10 2 0 4 5 4 10 0 6 -5 10 -11 10 -5 0 -7
-4 -4 -10z"/>
<path d="M4948 223 c6 -2 18 -2 25 0 6 3 1 5 -13 5 -14 0 -19 -2 -12 -5z"/>
</g>
</svg>
