<?xml version="1.0" standalone="no"?>
<!DOCTYPE svg PUBLIC "-//W3C//DTD SVG 20010904//EN"
 "http://www.w3.org/TR/2001/REC-SVG-20010904/DTD/svg10.dtd">
<svg version="1.0" xmlns="http://www.w3.org/2000/svg"
 width="318.000000pt" height="159.000000pt" viewBox="0 0 318.000000 159.000000"
 preserveAspectRatio="xMidYMid meet">

<g transform="translate(0.000000,159.000000) scale(0.100000,-0.100000)"
fill="#000000" stroke="none">
<path d="M482 1247 c58 -106 323 -557 328 -557 4 0 193 320 308 522 l34 59
-108 -3 -107 -3 -61 -107 c-33 -59 -63 -108 -66 -108 -3 0 -34 50 -69 110
l-62 110 -105 0 -105 0 13 -23z"/>
<path d="M1516 1092 c-3 -5 30 -121 72 -258 l78 -249 34 0 34 0 73 235 c40
129 73 245 73 258 0 17 -6 22 -24 22 -28 0 -25 7 -102 -255 -25 -88 -49 -163
-53 -167 -3 -4 -35 90 -70 208 -59 198 -66 214 -87 214 -12 0 -25 -4 -28 -8z"/>
<path d="M2671 1067 c-18 -23 -2 -49 28 -45 20 2 26 8 26 28 0 29 -34 40 -54
17z"/>
<path d="M1903 913 c-9 -3 -13 -35 -13 -111 0 -153 32 -209 130 -227 48 -8
117 28 142 75 15 29 18 54 16 150 l-3 115 -25 0 -25 0 -5 -123 c-5 -115 -7
-125 -29 -143 -39 -32 -108 -22 -127 18 -5 10 -11 70 -14 133 -5 117 -10 129
-47 113z"/>
<path d="M2295 901 c-47 -32 -65 -76 -65 -156 0 -107 39 -155 136 -170 68 -11
158 35 128 65 -7 7 -23 5 -51 -6 -75 -30 -153 8 -153 72 0 23 2 24 91 24 115
0 129 7 129 65 0 37 -6 52 -34 82 -30 33 -39 37 -92 40 -47 3 -65 0 -89 -16z
m130 -43 c15 -14 27 -35 28 -53 l2 -30 -82 -3 -83 -3 0 29 c0 69 82 106 135
60z"/>
<path d="M2677 914 c-4 -4 -7 -99 -7 -211 0 -190 -1 -204 -20 -223 -11 -11
-27 -20 -35 -20 -19 0 -20 -36 -1 -43 25 -10 69 8 90 37 20 26 21 41 21 244 0
211 -1 217 -20 220 -12 2 -24 0 -28 -4z"/>
<path d="M2833 908 c-29 -14 -56 -72 -47 -101 11 -36 34 -55 88 -73 62 -20 86
-40 86 -70 0 -42 -77 -59 -130 -29 -35 20 -50 18 -50 -5 0 -62 173 -77 215
-17 20 29 19 90 -2 116 -10 11 -47 31 -83 43 -56 20 -65 27 -68 50 -2 20 4 31
23 44 23 15 33 16 71 6 59 -16 64 -15 64 8 0 13 -10 24 -26 30 -33 13 -113 12
-141 -2z"/>
<path d="M2562 641 c-8 -4 -12 -19 -10 -32 4 -33 53 -40 63 -9 11 36 -22 61
-53 41z"/>
</g>
</svg>
